/* XPM */
static char *result[] = {
/* columns rows colors chars-per-pixel */
"64 64 184 2 ",
"   c #000000",
".  c #0B0705",
"X  c #0A0806",
"o  c #07070E",
"O  c #190D0D",
"+  c #19110D",
"@  c #0A0A16",
"#  c #0D0D1B",
"$  c #28170D",
"%  c #291815",
"&  c #2D2111",
"*  c #34231C",
"=  c #0F0F21",
"-  c #111123",
";  c #141B22",
":  c #13142B",
">  c #110F25",
",  c #331E2E",
"<  c #18232A",
"1  c #1C2830",
"2  c #232326",
"3  c #23323C",
"4  c #441A1A",
"5  c #4A1818",
"6  c #60201F",
"7  c #5F2426",
"8  c #542D2D",
"9  c #5B3131",
"0  c #632626",
"q  c #682727",
"w  c #662828",
"e  c #6B2929",
"r  c #692728",
"t  c #712B2B",
"y  c #783C2F",
"u  c #743C3D",
"i  c #783F3F",
"p  c #673830",
"a  c #594534",
"s  c #1F1F43",
"d  c #2B3A4D",
"f  c #2B2B5C",
"g  c #242556",
"h  c #2B2A68",
"j  c #313066",
"k  c #37366C",
"l  c #2B2D73",
"z  c #2E3477",
"x  c #333375",
"c  c #353678",
"v  c #31387C",
"b  c #3A397B",
"n  c #332F72",
"m  c #433759",
"M  c #743F42",
"N  c #6F3C42",
"B  c #4D3770",
"V  c #2D414D",
"C  c #3D457B",
"Z  c #7A4141",
"A  c #774146",
"S  c #4B4375",
"D  c #544C7C",
"F  c #53517F",
"G  c #665479",
"H  c #614E76",
"J  c #7D6177",
"K  c #852B2C",
"L  c #882A29",
"P  c #922B2B",
"I  c #983031",
"U  c #BB2A28",
"Y  c #BE302F",
"T  c #A33232",
"R  c #AC3434",
"E  c #BD3537",
"W  c #B33535",
"Q  c #C02D2A",
"!  c #C1312F",
"~  c #C03534",
"^  c #C63835",
"/  c #C23638",
"(  c #C13838",
")  c #CA3B3A",
"_  c #865F32",
"`  c #B74439",
"'  c #8E6539",
"]  c #C04F3C",
"[  c #C9533E",
"{  c #D54A3E",
"}  c #ED593D",
"|  c #FD613E",
" . c #95384C",
".. c #92374B",
"X. c #804444",
"o. c #834945",
"O. c #894D49",
"+. c #9B5D51",
"@. c #BA4E53",
"#. c #BD4A50",
"$. c #9A7759",
"%. c #93614D",
"&. c #AA7B40",
"*. c #A46E55",
"=. c #B3735E",
"-. c #B5785E",
";. c #AF745C",
":. c #BC5A63",
">. c #BA616D",
",. c #BD7B63",
"<. c #B96A78",
"1. c #DA4E40",
"2. c #D65841",
"3. c #CA5B5D",
"4. c #E35642",
"5. c #E65943",
"6. c #EA5C44",
"7. c #F96341",
"8. c #F96948",
"9. c #F36447",
"0. c #C95F63",
"q. c #C27D64",
"w. c #EF7A67",
"e. c #B58148",
"r. c #CA8569",
"t. c #D38C6D",
"y. c #CB8C71",
"u. c #C78F71",
"i. c #DA9271",
"p. c #D38D71",
"a. c #F38F7E",
"s. c #E19572",
"d. c #E79975",
"f. c #D7A07B",
"g. c #3C3C81",
"h. c #48548D",
"j. c #495A91",
"k. c #4D6C84",
"l. c #50708B",
"z. c #827491",
"x. c #A87889",
"c. c #5B819B",
"v. c #5E85A3",
"b. c #618BA6",
"n. c #6185AF",
"m. c #658AB3",
"M. c #6991B9",
"N. c #73A4C4",
"B. c #76ABCB",
"V. c #76A9C9",
"C. c #7BB0D3",
"Z. c #B68396",
"A. c #9D8EA5",
"S. c #AD95B0",
"D. c #CB8C98",
"F. c #F49280",
"G. c #DFA680",
"H. c #E6AB82",
"J. c #EFB689",
"K. c #F5BD8D",
"L. c #F1B386",
"P. c #C19CB0",
"I. c #D9A7B2",
"U. c #ECB5B3",
"Y. c #F3BBB8",
"T. c #FBC391",
"R. c #FFCD99",
"E. c #FFC891",
"W. c #9599C2",
"Q. c #A2A5C3",
"!. c #AEB6D8",
"~. c #B1B1D2",
"^. c #B3BADB",
"/. c #AEBDE1",
"(. c #DEBBC6",
"). c #BCC1DF",
"_. c #BCC2E0",
"`. c #C9C9E2",
"'. c #E5EDFD",
"]. c #EBECFC",
"[. c #E2E2F3",
"{. c #EAF6FF",
"}. c #F3F6FF",
"|. c None",
/* pixels */
"|.|.|.|.|.|.|.|.|.|.|.|.|.|.|.|.|.|.|.|.|.|.|.|.|.|.|.|.|.|.|.|.|.|.|.|.|.|.|.|.|.|.|.|.|.|.|.|.|.|.|.|.|.|.|.|.|.|.|.|.|.|.|.|.",
"|.|.|.|.|.|.|.|.|.|.|.|.|.|.|.|.|.|.|.|.|.|.|.|.|.|.|.|.|.|.|.|.|.|.|.|.|.|.|.|.|.|.|.|.|.|.|.|.|.|.|.|.|.|.|.|.|.|.|.|.|.|.|.|.",
"|.|.|.|.|.|.|.|.|.|.|.|.|.|.|.|.|.|.|.|.e e e e e e e e q q q q e e e e w e e w e w e |.|.|.|.|.|.|.|.|.|.|.|.|.|.|.|.|.|.|.|.|.",
"|.|.|.|.|.|.|.|.|.|.|.|.|.|.|.|.|.|.|.w t e e e e e e e t e e p e e e e e t e e t e t w |.|.|.|.|.|.|.|.|.|.|.|.|.|.|.|.|.|.|.|.",
"|.|.|.|.|.|.|.|.|.|.|.|.|.|.|.|.|.|.|.w w w w 7 0 7 7 7 7 7 7 7 7 9 7 p w 7 7 7 0 w w 7 |.|.|.|.|.|.|.|.|.|.|.|.|.|.|.|.|.|.|.|.",
"|.|.|.|.|.|.|.|.|.|.|.|.|.|.|.|.|.e w P I I ` [ ] ] ` 2.] #.[ [ ] [ ` [ ` [ ` [ ` I T I w e |.|.|.|.|.|.|.|.|.|.|.|.|.|.|.|.|.|.",
"|.|.|.|.|.|.|.|.|.|.|.|.|.|.|.|.w t e R ) ( 6.8.8.8.8.8.8.8.8.8.8.8.8.8.8.8.8.8.6./ ) R e t w |.|.|.|.|.|.|.|.|.|.|.|.|.|.|.|.|.",
"|.|.|.|.|.|.|.|.|.|.|.|.|.|.|.|.r e w T / E 5.8.8.8.8.8.8.8.8.8.8.8.8.8.8.8.8.8.4.E / T w e q |.|.|.|.|.|.|.|.|.|.|.|.|.|.|.|.|.",
"|.|.|.|.|.|.|.|.|.|.|.|.|.|.|.|.q e 0 ` 1.{ 9.8.8.8.8.8.8.8.9.8.8.8.8.8.8.8.8.8.6.[ { ` w r q |.|.|.|.|.|.|.|.|.|.|.|.|.|.|.|.|.",
"|.|.|.|.|.|.|.|.|.|.|.|.|.|.|.|.q p 0 [ 8.8.8.8.8.9.8.8.9.8.8.8.8.8.8.8.8.9.8.8.8.8.8.[ 0 e q |.|.|.|.|.|.|.|.|.|.|.|.|.|.|.|.|.",
"|.|.|.|.|.|.|.|.|.|.|.|.|.|.|.|.w w w [ 8.8.8.8.8.8.8.8.8.8.8.8.8.9.8.8.8.| 8.9.8.8.8.2.8 w 0 |.|.|.|.|.|.|.|.|.|.|.|.|.|.|.|.|.",
"|.|.|.|.|.|.|.|.|.|.|.|.|.|.|.|.K P K 2.8.8.8.8.9.8.9.8.8.8.8.9.8.8.8.8.8.8.8.8.8.8.8.2.K P K |.|.|.|.|.|.|.|.|.|.|.|.|.|.|.|.|.",
"|.|.|.|.|.|.|.|.|.|.|.|.|.e t e W ) ~ 6.8.8.8.8.8.8.8.8.8.9.8.8.8.8.8.8.9.8.8.8.8.8.8.6.( ) W r t e |.|.|.|.|.|.|.|.|.|.|.|.|.|.",
"|.|.|.|.|.|.|.|.|.|.|.|.|.e e w R ( E 6.8.8.8.8.8.8.8.9.8.8.8.8.9.8.8.8.8.8.8.8.8.8.8.9.E ( R r e e |.|.|.|.|.|.|.|.|.|.|.|.|.|.",
"|.|.|.|.|.|.|.|.|.|.|.|.|.4 4 4 T ( ( { 6.5.9.8.8.8.8.8.9.8.8.8.8.8.8.8.8.9.8.8.8.5.5.{ E ^ T 4 4 4 |.|.|.|.|.|.|.|.|.|.|.|.|.|.",
"|.|.|.|.|.|.|.|.|.|.|.|.|.      P ) ( E E W 2.8.8.9.8.8.8.8.8.8.8.8.8.9.8.8.8.8.5.W E E ( ] P       |.|.|.|.|.|.|.|.|.|.|.|.|.|.",
"|.|.|.|.|.|.|.|.|.|.|.|.|.      P ) ( ( E E 6.8.8.8.8.8.8.| 7.7.7.7.7.8.8.8.8.8.6.E E ( / ) P       |.|.|.|.|.|.|.|.|.|.|.|.|.|.",
"|.|.|.|.|.|.|.|.|.|.|.|.|.      P ( E / ( E 2.6.5.6.6.5.w.a.a.F.a.F.w.} 6.6.6.6.{ E ( ( / ( P       |.|.|.|.|.|.|.|.|.|.|.|.|.|.",
"|.|.|.|.|.|.|.|.|.|.|.|.|.      P ) E / ( / / E E E E U I.{.{.'.'.{.I.U E E E E ( ( E ( / ) P       |.|.|.|.|.|.|.|.|.|.|.|.|.|.",
"|.|.|.|.|.|.|.|.|.|.|.|.|.      P ) ( / E ~ / / E / E U I.{.'.].{.{.I.Q ~ E E ( ( ~ ~ E ( ) P       |.|.|.|.|.|.|.|.|.|.|.|.|.|.",
"|.|.|.|.|.|.|.|.|.|.|.|.|.& & & L R T @.:.:.#.E ~ @.:.@.D.(.(.(.(.(.D.:.:.@.W E #.:.:.@.R R L & & & |.|.|.|.|.|.|.|.|.|.|.|.|.|.",
"|.|.|.|.|.|.|.|.|.|.      ' e.e.y 0 6 A.^._.>.Y ~ Z./._.>.Q Y Y Y U >.)._.Z.E ! >.^.^.A.6 w y e.e.'       |.|.|.|.|.|.|.|.|.|.|.",
"|.|.|.|.|.|.|.|.|.|.      _ &.&.y e q A.^.).:.U Q Z.!.~.>.! ~ E ~ Q >.!.!.Z.U U >.).^.A.e e y &.&._       |.|.|.|.|.|.|.|.|.|.|.",
"|.|.|.|.|.|.|.|.|.|.      ' e.e.p 5 5 z.W.W.<.3.3.P.).^.D.3.0.0.0.3.Z._.).P.3.>.<.W.S.z.5 5 p e.e.'       |.|.|.|.|.|.|.|.|.|.|.",
"|.|.|.|.|.|.|.|.|.|.      ;.i.d.*     g x h ~.}.].].].].].].'.].].].].].].].].}.~.h c g     * d.i.;.      |.|.|.|.|.|.|.|.|.|.|.",
"|.|.|.|.|.|.|.|.|.|.      =.d.d.*     g b j ~.}.].].].].].].].].].].].].].].].}.~.l b g     * d.d.=.      |.|.|.|.|.|.|.|.|.|.|.",
"|.|.|.|.|.|.|.|.|.|.      %.-.,.* O + m D S Q.`.`.`.`.`.`.`.`.`.`.`.`.`.`.`.`.`.S.S D m O O * ,.-.%.      |.|.|.|.|.|.|.|.|.|.|.",
"|.|.|.|.|.|.|.|.|.|.|.|.|.      9 Z i q.s.d.G l n n n n x x z x x x x x x n x l G d.s.q.M Z 9       |.|.|.|.|.|.|.|.|.|.|.|.|.|.",
"|.|.|.|.|.|.|.|.|.|.|.|.|.      9 Z u ,.i.s.G z c b b b b x c c c x c b c b c x G s.i.q.M Z 9       |.|.|.|.|.|.|.|.|.|.|.|.|.|.",
"|.|.|.|.|.|.|.|.|.|.|.|.|.      p O.o.,.i.i.J S D k j j S D D S D D S j j k F S J i.i.q.o.O.p       |.|.|.|.|.|.|.|.|.|.|.|.|.|.",
"|.|.|.|.|.|.|.|.|.|.|.|.|.      ;.i.i.i.i.t.L.T.R.a     $.R.T.T.T.R.$.    a R.E.L.t.i.i.i.s.*.      |.|.|.|.|.|.|.|.|.|.|.|.|.|.",
"|.|.|.|.|.|.|.|.|.|.|.|.|.      *.d.i.i.i.i.L.T.R.a     $.R.K.T.T.R.$.    a R.T.L.t.i.i.i.i.*.      |.|.|.|.|.|.|.|.|.|.|.|.|.|.",
"|.|.|.|.|.|.|.|.|.|.|.|.|.      *.t.r.p.i.t.L.K.T.a . . $.R.K.K.T.R.$.. . a T.K.H.i.i.t.t.t.*.      |.|.|.|.|.|.|.|.|.|.|.|.|.|.",
"|.|.|.|.|.|.|.|.|.|.|.|.|.|.|.|.M Z i ,.i.i.t.t.s.+.N u u.E.T.T.T.T.u.u u +.i.i.i.t.i.,.u i Z |.|.|.|.|.|.|.|.|.|.|.|.|.|.|.|.|.",
"|.|.|.|.|.|.|.|.|.|.|.|.|.|.|.|.M X.u ,.i.i.i.i.s.+.M u u.R.T.K.K.E.u.u M +.s.i.i.i.i.,.u Z i |.|.|.|.|.|.|.|.|.|.|.|.|.|.|.|.|.",
"|.|.|.|.|.|.|.|.|.|.|.|.|.|.|.|.M Z N ;.t.r.y.i.i.+.Z M y.K.K.K.K.T.u.M M +.p.p.t.r.t.=.N A A |.|.|.|.|.|.|.|.|.|.|.|.|.|.|.|.|.",
"|.|.|.|.|.|.|.|.|.|.|.|.|.      f b b -   X 8 Z M ,.t.t.i.i.i.i.i.i.i.t.s.,.u M 8 .   - g.g.f       |.|.|.|.|.|.|.|.|.|.|.|.|.|.",
"|.|.|.|.|.|.|.|.|.|.|.|.|.      f b b -     8 Z u =.s.i.i.t.p.i.t.i.i.t.s.=.p ..8     - b B f       |.|.|.|.|.|.|.|.|.|.|.|.|.|.",
"|.|.|.|.|.|.|.|.|.|.|.|.|.X X   f b g.-     8 ..u =.t.t.t.r.t.t.t.t.t.t.t.=.M X.8     - g.b f . X X |.|.|.|.|.|.|.|.|.|.|.|.|.|.",
"|.|.|.|.|.|.|.|.|.|.Z Z u f.K.T.G c c c k z ../ / 5 . . . . . . . . X X X 5 ) ~ ..z c x b z G K.J.f.u Z Z |.|.|.|.|.|.|.|.|.|.|.",
"|.|.|.|.|.|.|.|.|.|.Z Z u G.T.E.G b c b b v  .^ ) 5                       5 ) ^  .v b c b x G T.T.H.u Z Z |.|.|.|.|.|.|.|.|.|.|.",
"|.|.|.|.|.|.|.|.|.|.i Z u G.T.E.G c c b c b  .^ ) 5         .             5 ) ^  .c c c b n k.K.T.f.u Z i |.|.|.|.|.|.|.|.|.|.|.",
"|.|.|.|.|.|.|.|.|.|.Z Z u r.i.i.p.u.p.H z v  .^ ] W W U x.Q.Q.Q.Q.Q.x.W W W ( ^ ..v c H p.y.p.i.i.r.i Z Z |.|.|.|.|.|.|.|.|.|.|.",
"|.|.|.|.|.|.|.|.|.|.i Z i q.i.i.i.i.s.H c c  .^ E ( E ! Z.^.~.~.~.^.Z.! ( ( / ^  .v x G s.i.i.t.i.r.u Z Z |.|.|.|.|.|.|.|.|.|.|.",
"|.|.|.|.|.|.|.|.|.|.Z Z u r.i.i.i.i.s.G c v ..( E / / ! Z.!.~.~.~.~.Z.Y E ( ( ^  .v b H s.i.i.i.i.r.u Z Z |.|.|.|.|.|.|.|.|.|.|.",
"|.|.|.|.|.|.|.|.|.|.|.|.|.X.O.O.* + + o o o K ) E 4.9.} U.'.[.[.[.'.U.} 9.} E ) K o o o + + * O.o.o.|.|.|.|.|.|.|.|.|.|.|.|.|.|.",
"|.|.|.|.|.|.|.|.|.|.|.|.|.i M X.O           L ^ ~ 5.8.| U.'.].].].].Y.| 8.4.E ) L           O X.Z i |.|.|.|.|.|.|.|.|.|.|.|.|.|.",
"|.|.|.|.|.|.|.|.|.|.|.|.|.i X.X.O           L ) ~ 6.8.| Y.{.].].].].Y.| 8.6.E ) t           O o.Z i |.|.|.|.|.|.|.|.|.|.|.|.|.|.",
"|.|.|.|.|.|.|.|.|.|.|.|.|.|.|.|.j j j l.b.b.h.B B , O $ % 2 2 2 2 2 % $ O , B B F b.b.l.j j j |.|.|.|.|.|.|.|.|.|.|.|.|.|.|.|.|.",
"|.|.|.|.|.|.|.|.|.|.|.|.|.|.|.|.b b x n.N.B.j.c B :                       : g.x j.V.V.n.x b b |.|.|.|.|.|.|.|.|.|.|.|.|.|.|.|.|.",
"|.|.|.|.|.|.|.|.|.|.|.|.|.|.|.|.b g.b n.B.B.j.n c >                 .     > b n j.B.V.n.b b b |.|.|.|.|.|.|.|.|.|.|.|.|.|.|.|.|.",
"|.|.|.|.|.|.|.|.|.|.|.|.|.|.|.|.@ @ @ ; ; < k.M.m.b.c.b.3           3 m.l.b.M.M.k.< < - @ # @ |.|.|.|.|.|.|.|.|.|.|.|.|.|.|.|.|.",
"|.|.|.|.|.|.|.|.|.|.|.|.|.|.|.|.            k.B.N.N.B.C.V           d C.N.N.N.B.k.            |.|.|.|.|.|.|.|.|.|.|.|.|.|.|.|.|.",
"|.|.|.|.|.|.|.|.|.|.|.|.|.|.|.|.            k.B.N.N.C.W.V           V C.N.N.N.B.k.            |.|.|.|.|.|.|.|.|.|.|.|.|.|.|.|.|.",
"|.|.|.|.|.|.|.|.|.|.|.|.|.|.|.|.      s f f C h.h.d : 1 ; |.|.|.|.|.; 1 < d h.h.C f f s       |.|.|.|.|.|.|.|.|.|.|.|.|.|.|.|.|.",
"|.|.|.|.|.|.|.|.|.|.|.|.|.|.|.|.      f g.b c c b >     |.|.|.|.|.|.|.    > b c c b g.f       |.|.|.|.|.|.|.|.|.|.|.|.|.|.|.|.|.",
"|.|.|.|.|.|.|.|.|.|.|.|.|.|.|.|.      f g.b b g.g.:     |.|.|.|.|.|.|.    : g.g.b b g.f       |.|.|.|.|.|.|.|.|.|.|.|.|.|.|.|.|.",
"|.|.|.|.|.|.|.|.|.|.|.|.|.|.|.|.|.|.|.= - = = = - @ |.|.|.|.|.|.|.|.|.|.|.@ - - = = - - |.|.|.|.|.|.|.|.|.|.|.|.|.|.|.|.|.|.|.|.",
"|.|.|.|.|.|.|.|.|.|.|.|.|.|.|.|.|.|.|.            |.|.|.|.|.|.|.|.|.|.|.|.|.            |.|.|.|.|.|.|.|.|.|.|.|.|.|.|.|.|.|.|.|.",
"|.|.|.|.|.|.|.|.|.|.|.|.|.|.|.|.|.|.|.            |.|.|.|.|.|.|.|.|.|.|.|.|.            |.|.|.|.|.|.|.|.|.|.|.|.|.|.|.|.|.|.|.|.",
"|.|.|.|.|.|.|.|.|.|.|.|.|.|.|.|.|.|.|.|.|.|.|.|.|.|.|.|.|.|.|.|.|.|.|.|.|.|.|.|.|.|.|.|.|.|.|.|.|.|.|.|.|.|.|.|.|.|.|.|.|.|.|.|.",
"|.|.|.|.|.|.|.|.|.|.|.|.|.|.|.|.|.|.|.|.|.|.|.|.|.|.|.|.|.|.|.|.|.|.|.|.|.|.|.|.|.|.|.|.|.|.|.|.|.|.|.|.|.|.|.|.|.|.|.|.|.|.|.|.",
"|.|.|.|.|.|.|.|.|.|.|.|.|.|.|.|.|.|.|.|.|.|.|.|.|.|.|.|.|.|.|.|.|.|.|.|.|.|.|.|.|.|.|.|.|.|.|.|.|.|.|.|.|.|.|.|.|.|.|.|.|.|.|.|.",
"|.|.|.|.|.|.|.|.|.|.|.|.|.|.|.|.|.|.|.|.|.|.|.|.|.|.|.|.|.|.|.|.|.|.|.|.|.|.|.|.|.|.|.|.|.|.|.|.|.|.|.|.|.|.|.|.|.|.|.|.|.|.|.|."
};
