/* XPM */
static char *result[] = {
/* columns rows colors chars-per-pixel */
"64 64 246 2 ",
"   c #010101",
".  c #0B0404",
"X  c #0D0A02",
"o  c #0C0C0C",
"O  c #130A04",
"+  c #130C09",
"@  c #1C0B0A",
"#  c #120706",
"$  c #1A1305",
"%  c #131313",
"&  c #1B1B1B",
"*  c #1D1813",
"=  c #260E0D",
"-  c #251807",
";  c #251B12",
":  c #281814",
">  c #3B1716",
",  c #2D0F11",
"<  c #3C2C01",
"1  c #342504",
"2  c #3B2A1C",
"3  c #322C12",
"4  c #232323",
"5  c #2B2B2B",
"6  c #272728",
"7  c #333333",
"8  c #3B3B3B",
"9  c #3B3936",
"0  c #363028",
"q  c #491D1A",
"w  c #463502",
"e  c #543D00",
"r  c #553904",
"t  c #483015",
"y  c #582825",
"u  c #493625",
"i  c #503930",
"p  c #742D2B",
"a  c #7A322C",
"s  c #6D3735",
"d  c #551F20",
"f  c #5B4301",
"g  c #5B4711",
"h  c #654C05",
"j  c #7B5C03",
"k  c #6A510C",
"l  c #797600",
"z  c #5A422C",
"x  c #58503A",
"c  c #6E582E",
"v  c #776633",
"b  c #716235",
"n  c #434343",
"m  c #4B4B4B",
"M  c #4B4944",
"N  c #594643",
"B  c #545454",
"V  c #5A5453",
"C  c #5B5B5B",
"Z  c #5E5A51",
"A  c #4F5050",
"S  c #645C48",
"D  c #625554",
"F  c #6C5453",
"G  c #605E5B",
"H  c #7A5151",
"J  c #755252",
"K  c #6E504B",
"L  c #7B6D4A",
"P  c #646464",
"I  c #6C6C6C",
"U  c #747474",
"Y  c #7B7B7B",
"T  c #797975",
"R  c #7B7668",
"E  c #863434",
"W  c #9C3C3A",
"Q  c #973A37",
"!  c #85372D",
"~  c #844A18",
"^  c #884D18",
"/  c #886404",
"(  c #966E00",
")  c #996C04",
"_  c #9C7202",
"`  c #91750B",
"'  c #A47900",
"]  c #AC7E01",
"[  c #A07700",
"{  c #B57E08",
"}  c #B87F0D",
"|  c #A57A14",
" . c #B57017",
".. c #934B37",
"X. c #A4413A",
"o. c #AA433D",
"O. c #B3463F",
"+. c #B44C3C",
"@. c #BC543A",
"#. c #B2572E",
"$. c #96742F",
"%. c #BB6725",
"&. c #A05A1D",
"*. c #C57918",
"=. c #D8683B",
"-. c #CF702C",
";. c #C1513F",
":. c #8E4C49",
">. c #884D4B",
",. c #944D4C",
"<. c #9D4C4B",
"1. c #875553",
"2. c #955551",
"3. c #AB4545",
"4. c #B34641",
"5. c #BC4944",
"6. c #BD4949",
"7. c #B64846",
"8. c #BA524A",
"9. c #B95953",
"0. c #A7544F",
"q. c #946B48",
"w. c #9E754A",
"e. c #877955",
"r. c #876D47",
"t. c #AA7D55",
"y. c #A37752",
"u. c #B26754",
"i. c #887B6E",
"p. c #B66A6A",
"a. c #C34B49",
"s. c #C94E4A",
"d. c #CD524A",
"f. c #C55644",
"g. c #D5534E",
"h. c #DA594C",
"j. c #CC5A52",
"k. c #C25A53",
"l. c #DC5A52",
"z. c #D55A52",
"x. c #E45A51",
"c. c #E85C53",
"v. c #CC6A68",
"b. c #E47871",
"n. c #928F00",
"m. c #AF8001",
"M. c #B58500",
"N. c #BB8B01",
"B. c #B5860A",
"V. c #BC8A0C",
"C. c #B98704",
"Z. c #BA8E0B",
"A. c #B3AE00",
"S. c #B98826",
"D. c #BE9236",
"F. c #C59100",
"G. c #CE9800",
"H. c #C69C01",
"J. c #D09900",
"K. c #DB9F02",
"L. c #CD9515",
"P. c #C9A600",
"I. c #DCA201",
"U. c #D4BA00",
"Y. c #DAAC1B",
"T. c #E7AA00",
"R. c #FFBB00",
"E. c #F4B300",
"W. c #E5B400",
"Q. c #CD942B",
"!. c #D6AA33",
"~. c #EAAF26",
"^. c #E19827",
"/. c #DCC500",
"(. c #D1CD08",
"). c #E1CC01",
"_. c #FFC900",
"`. c #E5D401",
"'. c #E8DC00",
"]. c #FCDA02",
"[. c #EAE500",
"{. c #F9E700",
"}. c #FFFF00",
"|. c #FBF402",
" X c #FAE12F",
".X c #90825B",
"XX c #B6845A",
"oX c #8E8467",
"OX c #998C69",
"+X c #918071",
"@X c #A29571",
"#X c #A98D6D",
"$X c #C28E55",
"%X c #D19256",
"&X c #E5AD53",
"*X c #C38F61",
"=X c #C59062",
"-X c #CA9667",
";X c #D39B6A",
":X c #C19D7E",
">X c #F2926A",
",X c #F4B46D",
"<X c #E8AB75",
"1X c #FEBA7F",
"2X c #F6B57A",
"3X c #E7A963",
"4X c #E3A850",
"5X c #FFCA6E",
"6X c #838383",
"7X c #8C8C8C",
"8X c #929292",
"9X c #9C9C9C",
"0X c #A39992",
"qX c #B3AA90",
"wX c #ABACAC",
"eX c #A2A2A3",
"rX c #BCBCBB",
"tX c #B5B4B4",
"yX c #BCADA3",
"uX c #FFBC81",
"iX c #F5B781",
"pX c #F1BF91",
"aX c #C2BCB7",
"sX c #CBB4A6",
"dX c #C08A8A",
"fX c #F8C496",
"gX c #FFC289",
"hX c #C6C4BD",
"jX c #D6C8AE",
"kX c #E1C6AE",
"lX c #BFC0C1",
"zX c #C3C3C4",
"xX c #CBCBCB",
"cX c #CCCAC6",
"vX c #D3D3D3",
"bX c #DCDBDB",
"nX c #DBD8D6",
"mX c #D5CACB",
"MX c #E4D8CD",
"NX c #FBE8D8",
"BX c #E4E4E4",
"VX c #FBFBFB",
"CX c #F7F7F8",
"ZX c #FFF1E2",
"AX c #DDDEE0",
"SX c None",
/* pixels */
"SXSXSXSXSXSXSXSXSXSXSXSXSXSXSXSXSX                        SXSXSXSXSXSXSXSXSXSXSXSXSXSXSXSXSXSXSXSXSXSXSXSXSXSXSXSXSXSXSXSXSXSXSX",
"SXSXSXSXSXSXSXSXSXSXSXSXSXSXSXSXSX. . . . . . . . . .     SXSXSXSXSXSXSXSXSXSXSXSXSXSXSXSXSXSXSXSXSXSXSXSXSXSXSXSXSXSXSXSXSXSXSX",
"SXSXSXSXSXSXSXSXSXSXSXSXSXSX    = o.+.+.4.4.4.O.+.O.W O         SXSXSXSXSXSXSXSXSXSXSXSXSXSXSXSXSXSXSXSXSXSXSXSXSXSXSXSXSXSXSXSX",
"SXSXSXSXSXSXSXSXSXSXSXSXSX. . . > g.c.c.c.x.c.c.c.c.s.= . . . . SXSXSXSXSXSXSXSXSXSXSXSXSXSXSXSXSXSXSXSXSXSXSXSXSXSXSXSXSXSXSXSX",
"SXSXSXSXSXSXSXSXSXSX      y O.O.5.x.x.x.x.c.x.x.x.x.h.O.O.O.O.X.@   SXSXSXSXSXSXSXSXSXSXSXSXSXSXSXSXSXSXSXSXSXSXSXSXSXSXSXSXSXSX",
"SXSXSXSXSXSXSXSXSXSX      p c.c.x.x.x.l.x.l.x.l.x.x.c.c.c.c.c.d.@   SXSXSXSXSXSXSXSXSXSXSXSXSXSXSXSXSXSXSXSXSXSXSXSXSXSXSXSXSXSX",
"SXSXSXSXSXSXSXSXSXM./ / / ) *.*. .^ ~ ~ ~ ~ ~ ~ ~ +.d.l.c.x.c.d.@     SXSXSXSXSXSXSXSXSXSXSXSXSXSXSXSXSXSXSXSXSXSXSXSXSXSXSXSXSX",
"SXSXSXSXSXSXSXSXM.M.M.M.M.N.M.N.' f f f f f f f f X.a.l.x.x.x.d.=     SXSXSXSXSXSXSXSXSXSXSXSXSXSXSXSXSXSXSXSXSXSXSXSXSXSXSXSXSX",
"SXSXSXSXSXSXSXM.U.`.`.`.`.`.`.W.T.F.F.F.F.F.F.F.F.} %.s.s.s.s.a.a q .     SXSXSXSXSXSXSXSXSXSXSXSXSXSXSXSXSXSXSXSXSXSXSXSXSXSXSX",
"SXSXSXSXSXSXSXM./.}.}.}.}.}.}._.R.R.R.R.R.R.R.R.R.G.{ 5.a.6.a.6.5.a       SXSXSXSXSXSXSXSXSXSXSXSXSXSXSXSXSXSXSXSXSXSXSXSXSXSXSX",
"SXSXSXSXSXM.H./.[.}.}.}.}.}.}.{.{.{._.R.R.R.R.R.R.T.K.*.#.a.6.6.4.W p =   SXSXSXSXSXSXSXSXSXSXSXSXSXSXSXSXSXSXSXSXSXSXSXSXSXSXSX",
"SXSXSXSXSXM.P.}.}.}.}.}.}.}.}.}.}.}.{.R.R.R.R.R.R.R.E.N. .a.a.5.4.+.4.q   SXSXSXSXSXSXSXSXSXSXSXSXSXSXSXSXSXSXSXSXSXSXSXSXSXSXSX",
"SXSXSXSXN./.`.}.}.}.}.}.}.}.}.}.}.}.|.]._.R.R.R.R.R.E.T.L.%.@.5.5.4.O.q     SXSXSXSXSXSXSXSXSXSXSXSXSXSXSXSXSXSXSXSXSXSXSXSXSXSX",
"SXSXSXM.N.[.}.}.}.}.}.}.}.}.}.}.}.}.}.}._.R.R.R.R.R.R.R.T.M.#.a.a.6.O.q       SXSXSXSXSXSXSXSXSXSXSXSXSXSXSXSXSXSXSXSXSXSXSXSXSX",
"SXSXM.P./.|.}.}.}.}.}.}.}.'./.{.}.}.|.]._.R.R.T.K.I.I.R.E.I.*.#.6.5.4.a q .   SXSXSXSXSXSXSXSXSXSXSXSXSXSXSXSXSXSXSX          SX",
"SXSXN.).}.}.}.}.}.}.}.}.}./.M.[.}.}.].R.R.R.R.T.M.M.N.E.R.R.J.{ @.5.4.4.X.@   SXSXSXSXSXSXSXSXSXSXSXSXSXSXSXSXSXSX              ",
"SXSXM.U.).).).).A.n.n.A.(.U.U.[.}.}.U.( ( ' I.L.S.Q.S.K.T.R.G.{ +.6.7.4.X.@   SXSXSXSXSXSXSXSXSXSXSXSXSXSXSXSXSXSX& 5 m m m &   ",
"SXSXSXM.M.M.M.M.f   . 1 ] /.}.}.}.}.n.    $ m.S.=X*X$XB.J.R.G.{ a.5.a.7.W @   SXSXSXSXSXSXSXSXSXSXSXSXSXSXSXSXSX  8 I rXzXrX7   ",
"SXSXSXSXM.M.M.N.<   i g h A.}.}.[.A.l w w f S.D.=X=X$XB.J.R.G.{ ;.a.6.5.X.@   SXSXSXSXSXSXSXSXSXSXSXSXSXSXSXSX% 6 P 6X8XwXzX8   ",
"SXSXSXSXSXSXSXSX  X -X-XX l }.}.(.X w N.C.V.=XXX=X=X$XB.J.R.G.{ @.a.a.a.4.@   SXSXSXSXSXSXSXSXSXSXSXSXSXSXSX  6 B eXtXB 8XbXn   ",
"SXSXSXSXSXSXSXSX  . r.q.< ` '.'.A.X 1 j j j r.q.=X=X$XB.J.R.J.] ! E a o.3.@   SXSXSXSXSXSXSXSXSXSXSXSXSXSXSX& n Y 8X9X6X7X8X7   ",
"SXSXSXSXSXSXSXSX      - m.M.M.N.( X           i *X=X$XB.J.R.J.[ $     p 7.@   SXSXSXSXSXSXSXSXSXSXSXSXSX  % m 6XlXI I nX6X  SXSX",
"SXSXSXSXSXSXSXSX      $ j m.Q.) j 8 4     o 7 K *X*X$XB.J.R.G.' i :   p 7.@   SXSXSXSXSXSXSXSXSXSXSXSXSX% 5 U 7XeX6XY eXI   SXSX",
"                          L 2X2 6 xXT     4 cXsX*X*X$XB.J.R.G.V.,Xt.  p 3.@   SXSXSXSXSXSXSXSXSXSXSXSX  8 I vX9XB rXrX% . SXSXSX",
"  o 7 7 7 7 7 8 4 $ 7 9 2 w.iXc N bX+X    6 vXkX*X*XXX) ] T.L.Q.%Xq., E 7.@   SXSXSXSXSXSXSXSXSXSXSXo & C 6XrX9XU 9X8X% SXSXSXSX",
"  8 xXnXnXvXAXCX@Xf hXNX2X1XuX2XfXVX8X    6 BXMX*X*Xt.% w C.&X<X; > 7.6.o.@   SX        SXSXSXSXSX  6 B rXlXC 8XnXn . SXSXSXSXSX",
"  n bXcXaXaXhXMXoXf jXNXgX1X1X1XfXZX9X: ; x MXkX*X=Xt.+ r L.4X;X2 d a.3.<.q = SX% o % o SXSXSXSXSXo 8 U tXtXU 7XwX8   SXSXSXSXSX",
"  8 bXOXh h k k 1 X -XgX1X1X1X1XuXgXiX,X=XXX-X-X*X=Xt.+ z ,XQ.} +.7.6.>.D k.Q . 5 A A 8   SXSX  % m 8XvXU U vXY o SXSXSXSXSXSXSX",
"  n bXOXe h h h < $ XX<X2X1X1X1X1X1X1X1X;X*X*X*X=X=Xt.+ z ,X!.N.@.5.a.H D z.X.  7 B P A .   SXo 4 P 9XzXY Y rXI   SXSXSXSXSXSXSX",
"  M CX@Xf _ ] ] m._ < u 2X1X1X1X1XuX1X1X;X*X*X=X=X=Xt.+ w V.`.{.F. .a.H V g.W . 7 C lX9Xo     8 I xX9XP rXwX4 % SXSXSXSXSXSXSXSX",
"  m CX@Xh ' M.M.M.m.1 2 ;X<X1X1XuXuX1X2X;X=X=X=X*XXXq.: w { ).'.N. .7.J V k.X.o 7 P xXwX.   % n U nXeXP tX9Xo SXSXSXSXSXSXSXSXSX",
"  m VX@Xf ' M.M.M.M.m.j * r.gX1X1XuX<X-X=X=X=X*X*Xu : Q 4.@.s.f.f.<.D V B D V m A G zXeXo 6 m A U nXnXzXn % SXSXSXSXSXSXSXSXSXSX",
"  M VX@Xf _ M.M.N.M.] / $ H <X<X<X<X;XXXt.XXXXt.XX2 @ 3.a.a.a.6.6.<.D V D D D D V G lX9Xo 0 C V U xXxXzX7   SXSXSXSXSXSXSXSXSXSX",
"  m VX@Xf m.M.M.M.m.< > +.s : : 4 ; ; & : * : * * 8 N j.l.l.x.g.J 1.j.j.j.j.j.j.1.B I A   f n.Z C I m 4 SXSXSXSXSXSXSXSXSXSXSXSX",
"  m VX@Xf m.N.Z.B.B.1 > x.a . . . . .     . . .   n F z.x.x.l.j.D 1.x.x.x.x.x.c.2.Z A n o h N.b B B 5   SXSXSXSXSXSXSXSXSXSXSXSX",
"  m VX@Xf _ D.jXjXjXp.9.sXp.Q Q Q W s m E W 4.o.Q K F l.g.a.2.J 0.3.a.s.s.x.x.x.z.8.4 < (.`.[.Z.$.B m n %   SXSXSXSXSXSXSXSXSXSX",
"  M VX@Xf _ D.bXAXbXb.v.aXdXs.6.7.4.:.A <.a.x.g.7.H F z.g.a.J V 0.6.7.6.6.l.x.x.c.g., w [.}.|.P.` Z B B %   SXSXSXSXSXSXSXSXSXSX",
"  m VXU O - x vXbXnXv.v.aXtXyXi , , = % N 1.l.9.F 0.k.x.g.6.H B F F F F J 6.d.x.x.l.5...< / P.v S V B B n 9 . SXSXSXSXSXSXSXSXSX",
"  m VXI     8 nXbXnXv.p.rXzXrX5         n F l.0.V 9.c.c.g.6.J B A B B B D 0.s.l.x.x.x.X.X f m.S B B B C C m     SXSXSXSXSXSXSXSX",
"  M VXU X q.dXnXbXvXN i xXxXrXc < w -   s 2.1.2.9.z.x.c.g.6.H A & & SXSXSXJ J H 0.s.a...X $ 1 M B B 6XtXwXY o   SXSXSXSXSXSXSXSX",
"  m VXI O ;XfXbXbXvX7 5 vXxXrXv f f 1   E 7.V 1.c.x.x.c.g.a.J m o   SXSXSXB B B >.6.4.E .   . n B B 8XbXxX9Xo   SXSXSXSXSXSXSXSX",
"  n BXP X -XfXcXvXvX7 5 vXvXrXv f f 1 . E 6.<.9.x.x.x.x.h.g.y & SXSXSXSXSX& & & N K q y y.t.y.0 & & 7 m n 7     SXSXSXSXSXSXSXSX",
"  8 bXG X -XpXhXmXvX7 7 vXvXrXv f h 1   E a.a.d.x.l.c.c.c.x.d . SXSXSXSXSX      7 A o 2 iXgX<X2                 SXSXSXSXSXSXSXSX",
"  8 zXR < z F rXzXcX#X#XnXxXrXb k 0XS   u.3X~.Y.Q.3X>X>X>X>XXXq.: SXSXSX. 7 9 9 n A % + z z z SXSXSXSXSXSXSXSXSXSXSXSXSXSXSXSXSX",
"  9 rX.Xe X 7 rXlXhXpXfXbXxXlXv c bXY . XX5X}.[.A.&XgXgXuXuXuX<X:   SX  . m B B B A o         SXSXSXSXSXSXSXSXSXSXSXSXSXSXSXSXSX",
"SX6 A R oXt t e.e.e.$.w..X.Xe.k g G c h Y. X(.(.&X,X5X!.4XQ.!.S.$   SX  o 7X7XB 8 4 o SXSXSXSXSXSXSXSXSXSXSXSXSXSXSXSXSXSXSXSXSX",
"SXSX  I rXc f f f f f f f f f f w   e N.'.|.A.&X1X1X,XB.m.M.{ _ $   SX  % lXrXC 4   SXSXSXSXSXSXSXSXSXSXSXSXSXSXSXSXSXSXSXSXSXSX",
"SXSX  I rXc f f f f f f f f f f w   t %.^.~.Q.%Xb.>X>X-.-.-.*.&.O   SXSX% P B 5 & SXSXSXSXSXSXSXSXSXSXSXSXSXSXSXSXSXSXSXSXSXSXSX",
"SXSX  U rXc f f f f f f f f f f w   q 4.g.c.x.x.x.x.x.x.x.x.a.W #   SXSXSX      SXSXSXSXSXSXSXSXSXSXSXSXSXSXSXSXSXSXSXSXSXSXSXSX",
"SXSX  M I e.v f f f f f f f f r.e.y a O.s.g.g.g.g.g.g.s.d.g.5.o.y q SXSXSXSX    SXSXSXSXSXSXSXSXSXSXSXSXSXSXSXSXSXSXSXSXSXSXSXSX",
"SXSXSX  o eX0Xf f f f f f f g yXmX6.O.O.5.a.a.a.6.6.6.4.O.O.O.O.O.!   SXSXSXSXSXSXSXSXSXSXSXSXSXSXSXSXSXSXSXSXSXSXSXSXSXSXSXSXSX",
"SXSXSXSXo I T .Xv f f f f v .X0X0X,.:.:.,.,.,.,.<.,.<.:.:.:.:.:.:.s 4 7 SXSXSXSXSXSXSXSXSXSXSXSXSXSXSXSXSXSXSXSXSXSXSXSXSXSXSXSX",
"SXSXSXSXSX  9 bXOXf f f f @XAXY B B B B B B B B B B C B B B B B B B B B C SXSXSXSXSXSXSXSXSXSXSXSXSXSXSXSXSXSXSXSXSXSXSXSXSXSXSX",
"SXSXSXSXSX  7 8XoXL v L L oX8XP B B P 6X6XU 8 n B B B B m 9 m B B P 6XB 7 SXSXSXSXSXSXSXSXSXSXSXSXSXSXSXSXSXSXSXSXSXSXSXSXSXSXSX",
"SXSXSXSXSXSXSX  P zXlXzXAXU   8 B B 8XAXBXrX%   SXSXSXSXSX  8 C B 6XbXB   SXSXSXSXSXSXSXSXSXSXSXSXSXSXSXSXSXSXSXSXSXSXSXSXSXSXSX",
"SXSXSXSXSXSXSX  B 7XtXrX9XU n I U B 8XbXwX6X% SXSXSXSXSXSX  5 8 m Y vXU 7 SXSXSXSXSXSXSXSXSXSXSXSXSXSXSXSXSXSXSXSXSXSXSXSXSXSXSX",
"SXSXSXSXSXSXSXSX  o 9X9Xo I bXbXzXC 8XbXn   SXSXSXSXSXSXSXSX  o m T zXaXwX4   SXSXSXSXSXSXSXSXSXSXSXSXSXSXSXSXSXSXSXSXSXSXSXSXSX",
"SXSXSXSXSXSXSXSXSXo Y i.0 +XMXjXqXC Y eX9   SXSXSXSXSXSXSXSX  o K i.qXsXyX;   SXSXSXSXSXSXSXSXSXSXSXSXSXSXSXSXSXSXSXSXSXSXSXSXSX",
"SXSXSXSXSXSXSXSXSXSX  2 <X1X1XQ.| Z 7 . SXSXSXSXSXSXSXSXSXSX  # a.=.M.3XiX:   SXSXSXSXSXSXSXSXSXSXSXSXSXSXSXSXSXSXSXSXSXSXSXSXSX",
"SXSXSXSXSXSXSXSXSXSX: u 3X,X3XQ.| M 5   SXSXSXSXSXSXSXSXSXSX  @ a.=.M.!.;Xt = SXSXSXSXSXSXSXSXSXSXSXSXSXSXSXSXSXSXSXSXSXSXSXSXSX",
"SXSXSXSXSXSXSXSX  . X.=.C.F.V.=.5.+   SXSXSXSXSXSXSXSXSXSXSX  @ s.=.M.N.V.h.Q . SXSXSXSXSXSXSXSXSXSXSXSXSXSXSXSXSXSXSXSXSXSXSXSX",
"SXSXSXSXSXSXSXSX    Q @.( ( ) @.X.. SXSXSXSXSXSXSXSXSXSXSXSX  # o.#.( ( ) @.! . SXSXSXSXSXSXSXSXSXSXSXSXSXSXSXSXSXSXSXSXSXSXSXSX",
"SXSXSXSXSXSXSXSX    . O X X X # # SXSXSXSXSXSXSXSXSXSXSXSXSXSXSX# O X X X # .   SXSXSXSXSXSXSXSXSXSXSXSXSXSXSXSXSXSXSXSXSXSXSXSX",
"SXSXSXSXSXSXSXSX                  SXSXSXSXSXSXSXSXSXSXSXSXSXSXSX                SXSXSXSXSXSXSXSXSXSXSXSXSXSXSXSXSXSXSXSXSXSXSXSX"
};
