/* XPM */
static char *result[] = {
/* columns rows colors chars-per-pixel */
"64 64 130 2 ",
"   c #010101",
".  c #0C0002",
"X  c #060808",
"o  c #0C0C0C",
"O  c #120002",
"+  c #1B0306",
"@  c #1C0508",
"#  c #120B0B",
"$  c #161616",
"%  c #171818",
"&  c #1A1A1A",
"*  c #250106",
"=  c #2B0107",
"-  c #24050A",
";  c #210C0E",
":  c #36040C",
">  c #380109",
",  c #220D10",
"<  c #290D11",
"1  c #330910",
"2  c #37171B",
"3  c #3C141A",
"4  c #3A181C",
"5  c #371D20",
"6  c #1D2120",
"7  c #222323",
"8  c #2A2526",
"9  c #2D2D2D",
"0  c #3E2F32",
"q  c #343434",
"w  c #393231",
"e  c #3B3B3B",
"r  c #44020C",
"t  c #4A020E",
"y  c #56020E",
"u  c #5A010E",
"i  c #4D0B15",
"p  c #520611",
"a  c #510913",
"s  c #63010E",
"d  c #640312",
"f  c #6B0714",
"g  c #650A17",
"h  c #670E1B",
"j  c #6C0D1A",
"k  c #740314",
"l  c #7C0114",
"z  c #720E1D",
"x  c #7D0B1B",
"c  c #541D24",
"v  c #641D27",
"b  c #7E1422",
"n  c #741B28",
"m  c #4E282D",
"M  c #493234",
"N  c #66222B",
"B  c #6C2730",
"V  c #7C2833",
"C  c #723C44",
"Z  c #783B41",
"A  c #3E4141",
"S  c #454545",
"D  c #4A4444",
"F  c #4A4A4A",
"G  c #6D4147",
"H  c #624A4D",
"J  c #70474C",
"K  c #820215",
"L  c #8C0117",
"P  c #890418",
"I  c #86081B",
"U  c #930319",
"Y  c #9B041A",
"T  c #9B081E",
"R  c #AE041D",
"E  c #B4011C",
"W  c #BC011D",
"Q  c #9B0B20",
"!  c #8A1828",
"~  c #9F1529",
"^  c #981C2D",
"/  c #AD0A23",
"(  c #B20620",
")  c #BD0521",
"_  c #B40B24",
"`  c #AC132A",
"'  c #8A2C38",
"]  c #C3011E",
"[  c #C9011F",
"{  c #C30421",
"}  c #CB0421",
"|  c #D40323",
" . c #DB0525",
".. c #D80827",
"X. c #D40C2A",
"o. c #DA0B2A",
"O. c #CB112D",
"+. c #E40325",
"@. c #EC0226",
"#. c #E50628",
"$. c #EA0628",
"%. c #E30A2A",
"&. c #F30226",
"*. c #FD0127",
"=. c #F50529",
"-. c #FE0229",
";. c #FD082D",
":. c #FC0C31",
">. c #FC1B3E",
",. c #C62940",
"<. c #FC2343",
"1. c #FC2D4D",
"2. c #FD3352",
"3. c #FC4864",
"4. c #FC657B",
"5. c #FC8A9C",
"6. c #FC94A4",
"7. c #FC9CAA",
"8. c #FCA1AF",
"9. c #FAA7B3",
"0. c #FAA8B3",
"q. c #FCBEC6",
"w. c #FBC0C7",
"e. c #FBDEE1",
"r. c #FBE1E4",
"t. c #FCE7EB",
"y. c #FCEBED",
"u. c #FCF0F2",
"i. c #FDFEFE",
"p. c None",
/* pixels */
"p.p.p.p.p.p.p.p.p.p.p.p.p.p.p.p.p.p.p.p.p.p.p.p.p.p.p.p.p.p.p.p.p.p.p.p.p.p.p.p.p.p.p.p.p.p.p.p.p.p.p.p.p.p.p.p.p.p.p.p.p.p.p.p.",
"p.p.p.p.p.p.p.p.p.p.p.p.p.p.p.p.p.p.p.p.p.p.p.p.p.p.p.p.p.p.p.p.p.p.p.p.p.p.p.p.p.p.p.p.p.p.p.p.p.p.p.p.p.p.p.p.p.p.p.p.p.p.p.p.",
"p.p.p.p.p.p.p.p.p.p.p.p.p.p.p.p.p.p.p.p.p.p.p.p.p.p.p.p.p.p.p.p.p.p.p.p.p.p.p.p.p.p.p.p.p.p.p.p.p.p.p.p.p.p.p.p.p.p.p.p.p.p.p.p.",
"p.p.p.p.p.p.p.p.p.p.p.p.p.p.p.p.p.p.p.p.p.p.p.p.p.p.p.p.p.p.p.p.p.p.p.p.p.p.p.p.p.p.p.p.p.p.p.p.p.p.p.p.p.p.p.p.p.p.p.p.p.p.p.p.",
"p.p.p.p.p.p.p.p.p.p.p.p.p.p.p.p.p.p.p.p.p.p.p.p.p.p.p.p.p.p.p.p.p.p.p.p.p.p.p.p.p.p.p.p.p.p.p.p.p.p.p.p.p.p.p.p.p.p.p.p.p.p.p.p.",
"p.p.p.p.p.p.p.p.p.p.p.p.p.p.p.p.p.p.p.p.p.p.p.p.p.p.p.p.p.p.p.p.p.p.p.p.p.p.p.p.p.p.p.p.p.p.p.p.p.p.p.p.p.p.p.p.p.p.p.p.p.p.p.p.",
"p.p.p.p.p.p.p.p.p.p.p.p.p.p.p.p.p.p.p.p.p.p.p.p.p.p.p.p.p.p.p.p.p.p.p.p.p.p.p.p.p.p.p.p.p.p.p.p.p.p.p.p.p.p.p.p.p.p.p.p.p.p.p.p.",
"p.p.p.p.p.p.p.p.p.p.p.p.p.p.p.p.p.p.p.p.p.p.p.p.p.p.p.p.p.p.p.p.p.p.p.p.p.p.p.p.p.p.p.p.p.p.p.p.p.p.p.p.p.p.p.p.p.p.p.p.p.p.p.p.",
"p.p.p.p.p.p.p.p.p.p.p.p.p.p.p.p.p.p.p.p.p.p.p.p.p.p.p.p.p.p.p.p.p.p.p.p.p.p.p.p.p.p.p.p.p.p.p.p.p.p.p.p.p.p.p.p.p.p.p.p.p.p.p.p.",
"p.p.p.p.p.p.p.p.p.p.p.p.p.p.p.p.p.p.p.p.p.p.p.p.p.p.p.p.p.p.p.p.p.p.p.p.p.p.p.p.p.p.p.p.p.p.p.p.p.p.p.p.p.p.p.p.p.p.p.p.p.p.p.p.",
"p.p.p.p.p.p.p.p.p.p.p.p.p.p.p.p.p.p.p.p.p.p.p.p.p.p.p.p.p.p.p.p.p.p.p.p.p.p.p.p.p.p.p.p.p.p.p.p.p.p.p.p.p.p.p.p.p.p.p.p.p.p.p.p.",
"p.p.p.p.p.p.p.p.p.p.p.p.p.p.p.e o o $ o $ o o $ # % p.p.p.p.p.p.p.p.p.p.p.q $ o o o $ o $ o # % p.p.p.p.p.p.p.p.p.p.p.p.p.p.p.p.",
"p.p.p.p.p.p.p.p.p.p.p.p.p.p.p.9                   X p.p.p.p.p.p.p.p.p.p.p.9                   o p.p.p.p.p.p.p.p.p.p.p.p.p.p.p.p.",
"p.p.p.p.p.p.p.p.p.p.p.p.p.p.p.9                   o p.p.p.p.p.p.p.p.p.p.p.q                   o p.p.p.p.p.p.p.p.p.p.p.p.p.p.p.p.",
"p.p.p.p.p.p.p.p.p.p.p.p.p.p.p.w . . . O . O O .   # p.p.p.p.p.p.p.p.p.p.p.0 O + O O O . . . . # p.p.p.p.p.p.p.p.p.p.p.p.p.p.p.p.",
"p.p.p.p.p.p.p.p.p.p.p.p.9 8 8 ^ W ] ] ] ] [ ] ] _ _ B 7 7 e p.p.p.p.8 8 8 ~ | | } ] ] ] ] ] W _ N 7 7 e p.p.p.p.p.p.p.p.p.p.p.p.",
"p.p.p.p.p.p.p.p.p.p.p.p.o     R -.-.*.*.-.-.*.-.*.-.d     % p.p.p.p.      E -.-.-.-.*.-.-.-.*.*.u     & p.p.p.p.p.p.p.p.p.p.p.p.",
"p.p.p.p.p.p.p.p.p.p.p.p.o     E -.-.*.*.*.*.*.*.*.-.d     % p.p.p.p.X   . E *.*.*.*.*.*.*.*.*.*.u     & p.p.p.p.p.p.p.p.p.p.p.p.",
"p.p.p.p.p.p.p.p.p.p.p.p.X     R *.*.*.*.*.*.*.*.*.-.d     & p.p.p.p.X   . E -.*.*.*.*.*.*.*.*.*.u     & p.p.p.p.p.p.p.p.p.p.p.p.",
"p.p.p.p.p.p.p.p.p.p.p.J i y s ,.2.2.1.1.1.1.>.*.-.-.L r r c p.p.p.C y t u | *.*.*.*.*.*.*.*.*.*.Y y y v p.p.p.p.p.p.p.p.p.p.p.p.",
"p.p.p.p.p.p.p.p.7 o X z =.=.*.6.u.y.y.t.t.t.5.*.*.*.*.&.&.%.3 o o x *.&.*.*.*.*.*.*.*.*.*.*.*.*.-.*.-. .< o o e p.p.p.p.p.p.p.p.",
"p.p.p.p.p.p.p.p.$     d -.*.-.9.i.i.i.i.i.i.7.*.*.*.*.*.*.@.:     k -.*.*.*.*.*.*.*.*.*.*.*.*.*.*.*.-. .*     q p.p.p.p.p.p.p.p.",
"p.p.p.p.p.p.p.p.%     s *.*.;.7.i.i.i.i.i.i.8.*.*.*.*.*.*.&.:     k -.*.*.*.*.*.*.*.*.*.*.*.*.*.*.*.*. .+     q p.p.p.p.p.p.p.p.",
"p.p.p.p.p.p.p.p.$     d *.-.=.9.i.i.i.y.y.y.6.-.*.*.*.*.*.&.t O + I -.*.*.*.*.*.*.*.*.*.*.*.*.*.*.*.*. .+     q p.p.p.p.p.p.p.p.",
"p.p.p.p.p.p.p.p.%     s *.*.;.8.i.i.r.3.2.1.>.*.*.*.*.*.*.*. .| | +.*.*.*.*.*.*.*.*.*.*.*.*.*.*.*.*.*. .+     q p.p.p.p.p.p.p.p.",
"p.p.p.p.p.p.p.p.%     s *.;.*.7.i.i.e.<.*.*.*.*.*.*.*.*.*.*.*.*.*.*.*.*.*.*.*.*.*.*.*.*.*.*.;.*.*.*.-. .+     q p.p.p.p.p.p.p.p.",
"p.p.p.p.p.p.p.p.$     d *.*.;.6.i.i.e.<.*.*.*.*.*.*.*.*.*.*.*.*.*.*.*.*.*.*.*.*.*.*.*.*.*.*.*.*.*.*.*. .+     q p.p.p.p.p.p.p.p.",
"p.p.p.p.p.p.p.p.$     d *.*.*.5.i.i.r.<.*.*.*.*.*.*.*.*.*.*.*.*.*.*.*.*.*.*.*.*.*.*.*.*.*.*.*.*.*.*.-. .+     q p.p.p.p.p.p.p.p.",
"p.p.p.p.p.p.p.p.%     s -.*.*.4.q.w.0.>.*.*.*.*.*.*.*.*.*.*.*.*.*.*.*.*.*.*.*.*.*.*.*.*.*.*.*.*.*.*.*. .+     q p.p.p.p.p.p.p.p.",
"p.p.p.p.p.p.p.p.$     s *.*.*.;.:.:.:.-.*.*.*.*.*.*.*.*.*.*.*.*.*.*.*.*.*.*.*.*.-.*.*.*.*.*.*.*.*.*.-...+     q p.p.p.p.p.p.p.p.",
"p.p.p.p.p.p.p.p.$     s *.*.*.*.-.*.*.*.*.*.*.*.*.*.*.*.*.*.*.*.*.*.*.*.*.*.*.*.*.*.*.*.*.*.*.*.*.*.-. .+     q p.p.p.p.p.p.p.p.",
"p.p.p.p.p.p.p.p.%     s *.*.*.*.*.*.*.*.*.*.*.*.*.*.*.*.*.*.*.*.*.-.*.*.*.*.*.*.*.*.*.*.*.*.*.*.*.*.-. .+     q p.p.p.p.p.p.p.p.",
"p.p.p.p.p.p.p.p.& X X f =.-.-.*.*.*.*.*.*.*.*.*.*.*.*.*.*.*.*.*.*.*.*.*.*.*.*.*.*.*.*.*.*.*.*.*.*.;.;.o.; o o q p.p.p.p.p.p.p.p.",
"p.p.p.p.p.p.p.p.p.p.p.Z j g k  .*.*.*.*.*.*.*.*.*.*.*.*.*.*.*.-.*.*.*.*.*.*.*.*.*.*.*.*.*.*.*.*.T u f n p.p.p.p.p.p.p.p.p.p.p.p.",
"p.p.p.p.p.p.p.p.p.p.p.p.o   . W *.*.*.*.*.*.*.*.*.*.*.*.*.*.*.*.*.*.*.*.*.*.*.*.*.*.*.*.*.*.*.;.a     & p.p.p.p.p.p.p.p.p.p.p.p.",
"p.p.p.p.p.p.p.p.p.p.p.p.o   . E *.*.*.*.*.*.*.*.*.*.*.*.*.*.*.*.*.*.*.*.*.*.*.*.*.*.*.*.*.*.*.;.a     & p.p.p.p.p.p.p.p.p.p.p.p.",
"p.p.p.p.p.p.p.p.p.p.p.p.X     E -.*.*.*.*.*.*.*.*.*.*.*.*.*.*.*.*.*.*.*.*.*.*.*.*.*.*.*.-.-.*.*.p     % p.p.p.p.p.p.p.p.p.p.p.p.",
"p.p.p.p.p.p.p.p.p.p.p.p.8 7 8 `  . .+.*.*.*.*.*.*.*.*.*.*.*.*.*.*.*.*.*.*.-.*.*.*.*.*.-.&. .| X.N 6 7 q p.p.p.p.p.p.p.p.p.p.p.p.",
"p.p.p.p.p.p.p.p.p.p.p.p.p.p.p.M + + r #.*.*.*.*.*.*.;.*.*.*.*.*.*.*.*.*.*.*.*.*.*.*.*.-.R + + ; p.p.p.p.p.p.p.p.p.p.p.p.p.p.p.p.",
"p.p.p.p.p.p.p.p.p.p.p.p.p.p.p.9     -  .*.*.*.*.*.*.*.*.*.*.*.*.*.*.*.*.*.*.*.*.*.*.*.*.T     o p.p.p.p.p.p.p.p.p.p.p.p.p.p.p.p.",
"p.p.p.p.p.p.p.p.p.p.p.p.p.p.p.q     - o.-.*.*.*.*.*.*.*.-.*.*.*.;.*.*.*.*.*.*.*.*.*.*.-.T     o p.p.p.p.p.p.p.p.p.p.p.p.p.p.p.p.",
"p.p.p.p.p.p.p.p.p.p.p.p.p.p.p.q X X < %.-.-.-.*.*.*.*.*.*.*.*.*.*.*.*.*.*.*.*.*.-.*.-.-.T X X o p.p.p.p.p.p.p.p.p.p.p.p.p.p.p.p.",
"p.p.p.p.p.p.p.p.p.p.p.p.p.p.p.p.S p.H ! K x ) -.*.*.*.*.*.*.*.*.*.*.*.*.*.*.*.*.@.Y L L V F S p.p.p.p.p.p.p.p.p.p.p.p.p.p.p.p.p.",
"p.p.p.p.p.p.p.p.p.p.p.p.p.p.p.p.p.p.p.%     l -.*.*.*.*.*.*.*.*.*.*.*.*.*.*.*.*. .+     7 p.p.p.p.p.p.p.p.p.p.p.p.p.p.p.p.p.p.p.",
"p.p.p.p.p.p.p.p.p.p.p.p.p.p.p.p.p.p.p.%     l *.*.*.*.*.*.*.*.*.*.*.*.*.*.*.*.*...@     7 p.p.p.p.p.p.p.p.p.p.p.p.p.p.p.p.p.p.p.",
"p.p.p.p.p.p.p.p.p.p.p.p.p.p.p.p.p.p.p.%     K -.*.-.*.*.*.*.*.*.*.*.*.*.*.*.*.;.o.@     7 p.p.p.p.p.p.p.p.p.p.p.p.p.p.p.p.p.p.p.",
"p.p.p.p.p.p.p.p.p.p.p.p.p.p.p.p.p.p.p.9 & & ! $.@.@.*.-.*.*.*.*.*.*.*.*.*.&.#.#.O.5 & & e p.p.p.p.p.p.p.p.p.p.p.p.p.p.p.p.p.p.p.",
"p.p.p.p.p.p.p.p.p.p.p.p.p.p.p.p.p.p.p.p.p.p.p.: * > } -.*.*.*.*.*.*.*.*.*.I - - 4 p.p.p.p.p.p.p.p.p.p.p.p.p.p.p.p.p.p.p.p.p.p.p.",
"p.p.p.p.p.p.p.p.p.p.p.p.p.p.p.p.p.p.p.p.p.p.p.o   . W -.*.*.*.*.*.*.*.*.;.f     $ p.p.p.p.p.p.p.p.p.p.p.p.p.p.p.p.p.p.p.p.p.p.p.",
"p.p.p.p.p.p.p.p.p.p.p.p.p.p.p.p.p.p.p.p.p.p.p.X   . ] -.*.*.*.*.*.*.*.*.-.f     $ p.p.p.p.p.p.p.p.p.p.p.p.p.p.p.p.p.p.p.p.p.p.p.",
"p.p.p.p.p.p.p.p.p.p.p.p.p.p.p.p.p.p.p.p.p.p.p.o   . { -.*.*.-.*.*.-.-.-.;.h     $ p.p.p.p.p.p.p.p.p.p.p.p.p.p.p.p.p.p.p.p.p.p.p.",
"p.p.p.p.p.p.p.p.p.p.p.p.p.p.p.p.p.p.p.p.p.p.p.S S S ' I K Y &.*.-.X.x b b C S e F p.p.p.p.p.p.p.p.p.p.p.p.p.p.p.p.p.p.p.p.p.p.p.",
"p.p.p.p.p.p.p.p.p.p.p.p.p.p.p.p.p.p.p.p.p.p.p.p.p.p.9     * +.*.-.`     X p.p.p.p.p.p.p.p.p.p.p.p.p.p.p.p.p.p.p.p.p.p.p.p.p.p.p.",
"p.p.p.p.p.p.p.p.p.p.p.p.p.p.p.p.p.p.p.p.p.p.p.p.p.p.9     * +.*.-.`     X p.p.p.p.p.p.p.p.p.p.p.p.p.p.p.p.p.p.p.p.p.p.p.p.p.p.p.",
"p.p.p.p.p.p.p.p.p.p.p.p.p.p.p.p.p.p.p.p.p.p.p.p.p.p.9     * +.-.-./ X   X p.p.p.p.p.p.p.p.p.p.p.p.p.p.p.p.p.p.p.p.p.p.p.p.p.p.p.",
"p.p.p.p.p.p.p.p.p.p.p.p.p.p.p.p.p.p.p.p.p.p.p.p.p.p.e % $ 2 | %.$.` & % & p.p.p.p.p.p.p.p.p.p.p.p.p.p.p.p.p.p.p.p.p.p.p.p.p.p.p.",
"p.p.p.p.p.p.p.p.p.p.p.p.p.p.p.p.p.p.p.p.p.p.p.p.p.p.p.p.p.p.4 * = m p.p.p.p.p.p.p.p.p.p.p.p.p.p.p.p.p.p.p.p.p.p.p.p.p.p.p.p.p.p.",
"p.p.p.p.p.p.p.p.p.p.p.p.p.p.p.p.p.p.p.p.p.p.p.p.p.p.p.p.p.p.%     6 p.p.p.p.p.p.p.p.p.p.p.p.p.p.p.p.p.p.p.p.p.p.p.p.p.p.p.p.p.p.",
"p.p.p.p.p.p.p.p.p.p.p.p.p.p.p.p.p.p.p.p.p.p.p.p.p.p.p.p.p.p.%     7 p.p.p.p.p.p.p.p.p.p.p.p.p.p.p.p.p.p.p.p.p.p.p.p.p.p.p.p.p.p.",
"p.p.p.p.p.p.p.p.p.p.p.p.p.p.p.p.p.p.p.p.p.p.p.p.p.p.p.p.p.p.% X   8 p.p.p.p.p.p.p.p.p.p.p.p.p.p.p.p.p.p.p.p.p.p.p.p.p.p.p.p.p.p.",
"p.p.p.p.p.p.p.p.p.p.p.p.p.p.p.p.p.p.p.p.p.p.p.p.p.p.p.p.p.p.p.q q p.p.p.p.p.p.p.p.p.p.p.p.p.p.p.p.p.p.p.p.p.p.p.p.p.p.p.p.p.p.p.",
"p.p.p.p.p.p.p.p.p.p.p.p.p.p.p.p.p.p.p.p.p.p.p.p.p.p.p.p.p.p.p.p.p.p.p.p.p.p.p.p.p.p.p.p.p.p.p.p.p.p.p.p.p.p.p.p.p.p.p.p.p.p.p.p.",
"p.p.p.p.p.p.p.p.p.p.p.p.p.p.p.p.p.p.p.p.p.p.p.p.p.p.p.p.p.p.p.p.p.p.p.p.p.p.p.p.p.p.p.p.p.p.p.p.p.p.p.p.p.p.p.p.p.p.p.p.p.p.p.p.",
"p.p.p.p.p.p.p.p.p.p.p.p.p.p.p.p.p.p.p.p.p.p.p.p.p.p.p.p.p.p.p.p.p.p.p.p.p.p.p.p.p.p.p.p.p.p.p.p.p.p.p.p.p.p.p.p.p.p.p.p.p.p.p.p."
};
