/* XPM */
static char *result[] = {
/* columns rows colors chars-per-pixel */
"64 64 249 2 ",
"   c #7A0407",
".  c #7A1617",
"X  c #761B11",
"o  c #791B27",
"O  c #772E2A",
"+  c #7C231B",
"@  c #7D4949",
"#  c #7E5347",
"$  c #890709",
"%  c #930403",
"&  c #9B0402",
"*  c #9C0C04",
"=  c #930409",
"-  c #9C040B",
";  c #950C0B",
":  c #9B0C0C",
">  c #940A04",
",  c #8D1505",
"<  c #88150A",
"1  c #94130C",
"2  c #981507",
"3  c #8C0D14",
"4  c #930C13",
"5  c #9C0C13",
"6  c #9B0D1C",
"7  c #960717",
"8  c #8C1213",
"9  c #881718",
"0  c #941314",
"q  c #9A1214",
"w  c #98171A",
"e  c #A30402",
"r  c #AB0303",
"t  c #A40A01",
"y  c #A50509",
"u  c #AB020C",
"i  c #A20B0D",
"p  c #AC0A04",
"a  c #B60506",
"s  c #A8130B",
"d  c #A20C13",
"f  c #A70716",
"g  c #B20515",
"h  c #A41214",
"j  c #A8151A",
"k  c #B51617",
"l  c #99241C",
"z  c #8D231F",
"x  c #AE2A13",
"c  c #871923",
"v  c #9A1622",
"b  c #901026",
"n  c #A61A23",
"m  c #B31B26",
"M  c #B51C32",
"N  c #8A2729",
"B  c #972725",
"V  c #8E2A33",
"C  c #9A2B33",
"Z  c #883739",
"A  c #9B3434",
"S  c #98373A",
"D  c #98362D",
"F  c #A62727",
"G  c #B62A29",
"H  c #A9372C",
"J  c #A92A34",
"K  c #B72B33",
"L  c #A53538",
"P  c #B73638",
"I  c #BB3329",
"U  c #C3050A",
"Y  c #C51015",
"T  c #C3281A",
"R  c #C92328",
"E  c #C53639",
"W  c #C82F2D",
"Q  c #88483B",
"!  c #94453D",
"~  c #9B4639",
"^  c #8B513D",
"/  c #A6423A",
"(  c #AF4F3E",
")  c #C24A3B",
"_  c #D0423E",
"`  c #963A45",
"'  c #9D3E54",
"]  c #8A3B44",
"[  c #A83B45",
"{  c #B83B45",
"}  c #AA3A52",
"|  c #C43D47",
" . c #8C4643",
".. c #844B43",
"X. c #8A4B43",
"o. c #8C4549",
"O. c #87494A",
"+. c #944444",
"@. c #984849",
"#. c #8C524C",
"$. c #87544A",
"%. c #96524B",
"&. c #8A4855",
"*. c #954B54",
"=. c #9B4A54",
"-. c #984757",
";. c #8B5351",
":. c #885458",
">. c #965556",
",. c #A74849",
"<. c #B94947",
"1. c #B5544C",
"2. c #A44957",
"3. c #B54E52",
"4. c #A95556",
"5. c #B75855",
"6. c #A9584B",
"7. c #B96256",
"8. c #975564",
"9. c #B05764",
"0. c #B7766C",
"q. c #B87678",
"w. c #B2676E",
"e. c #9D6F71",
"r. c #C54546",
"t. c #CB5855",
"y. c #D45759",
"u. c #C74C52",
"i. c #C86C5B",
"p. c #CA5862",
"a. c #D35A62",
"s. c #C66965",
"d. c #CA6B79",
"f. c #C87877",
"g. c #D77878",
"h. c #D16F6D",
"j. c #E5776C",
"k. c #E4777A",
"l. c #EE7071",
"z. c #E2495B",
"x. c #B9847B",
"c. c #C5867B",
"v. c #D78679",
"b. c #BE7D85",
"n. c #C57783",
"m. c #E27883",
"M. c #B9858A",
"N. c #C98886",
"B. c #D78B88",
"V. c #CB968B",
"C. c #D4968D",
"Z. c #CD8D91",
"A. c #D88D96",
"S. c #CE9896",
"D. c #DB9494",
"F. c #D49A94",
"G. c #DB9A95",
"H. c #DB949A",
"J. c #D69897",
"K. c #F88685",
"L. c #E8928B",
"P. c #E58C98",
"I. c #E49698",
"U. c #F9979B",
"Y. c #F2908B",
"T. c #D9A69C",
"R. c #FBA59B",
"E. c #EEAE9C",
"W. c #D898A5",
"Q. c #D499A8",
"!. c #E393A3",
"~. c #E998A5",
"^. c #F195A3",
"/. c #D1A9AA",
"(. c #E8AAA7",
"). c #FEABA4",
"_. c #FEADAB",
"`. c #FAA8A9",
"'. c #E8B4A9",
"]. c #F4B4AC",
"[. c #FBB2AC",
"{. c #FCB6A8",
"}. c #E9A8B3",
"|. c #FDACB4",
" X c #FCA8B6",
".X c #EDB5B3",
"XX c #EAB6B8",
"oX c #FCB2B3",
"OX c #FFBBB4",
"+X c #F5B1BB",
"@X c #FFB4BB",
"#X c #FFBBBB",
"$X c #F2B5B4",
"%X c #E9C4B8",
"&X c #FCC5B7",
"*X c #FFC2AF",
"=X c #FDAEC3",
"-X c #FEBCC4",
";X c #FAB5C4",
":X c #E9C9C7",
">X c #FFC2C3",
",X c #FFCCC3",
"<X c #FCCACB",
"1X c #FFD3CC",
"2X c #FCD9CA",
"3X c #FECAD4",
"4X c #FFD4DB",
"5X c #FFDCDB",
"6X c #FCD7D4",
"7X c #ECD1CB",
"8X c #FFE3CC",
"9X c #FFE4D5",
"0X c #FFE3DC",
"qX c #FEEBDC",
"wX c #FFF3DC",
"eX c #FFFADF",
"rX c #EDF8DA",
"tX c #FFDCE3",
"yX c #FFDCE9",
"uX c #FFD5E2",
"iX c #FFE4E4",
"pX c #FFECE4",
"aX c #FFE4EA",
"sX c #FFECEC",
"dX c #F2E6E3",
"fX c #EBFCEB",
"gX c #FFF2E4",
"hX c #FEFBE5",
"jX c #FFF4EC",
"kX c #F4FDEC",
"lX c #FEFCEC",
"zX c #F2F8EA",
"xX c #FFE6F3",
"cX c #FFECF3",
"vX c #FFEDFC",
"bX c #FDE6FA",
"nX c #EBFDF4",
"mX c #EDFEFD",
"MX c #E9F8FA",
"NX c #F4F4F3",
"BX c #FFF4F4",
"VX c #F4FEF5",
"CX c #FEFBF4",
"ZX c #FFF4FC",
"AX c #F4FEFD",
"SX c #FEFCFD",
"DX c #F5F4FE",
"FX c #EEEFFF",
"GX c #DDFFE8",
/* pixels */
"AXFXAXSXZXZXDXAXAXSXSXSXZXSXVXVXAXAXAXAXSXSXSXVXMXmXmXAXSXSXSXSXSXSXSXSXSXAXAXAXAXAXSXSXSXSXSXAXAXAXAXSXlXCXZXZXCXfXVXfXlXCXmXmX",
"FXSXCXjXsXVXZXSXSXCXZXZXZXZXlXlXCXSXSXCXBXCXjXBXCXCXCXSXZXZXBXBXBXBXZXDXZXSXSXSXSXCXZXZXZXZXBXCXSXSXCXCXjXjXZXZXjXlXlXzXgXjXSXMX",
"lXhXc.%.^ ^ # @ ..Q o.o.o. .Q Q ..O.O.+.+.+.~ +.+.o.o.o.O.# O.X. .!  . . . .X...X. . .+. .X.Q  .o.&.O.O.Q  .&.'  ...# # %.c.ZXZX",
"lXwX6.i.E.'.'.'.].].|.|.+X+X[.{..X.X[.[.)._._._._._.|.oX]..X.X.X[.[.[.].[._.].].[.[.[.[.[.oX[.oX X X$X.X].].=X=X$X].(.(.s.4.xXCX",
"VXjX@.I.lXlXCXZXBXcXvXZXZXZXZXBXBXBXlXlXlXjXjXsXBXjXBXBXBXBXCXCXZXSXZXCXNXCXBXBXBXBXCXCXCXSXSXZXvXZXCXlXlXjXZXvXZXBXBXcXU.=.cXSX",
"AXZX@.D.lXnXSXZXCXSXSXSXAXAXSXCXSXSXSXVXSXSXSXSXCXSXSXSXZXSXSXAXAXAXSXSXSXSXSXSXSXSXSXSXSXSXSXSXZXSXAXVXCXCXSXSXZXSXZXvXA.-.SXAX",
"DXSX2.~.CXmXSXSXSXCXSXSXAXAXAXSXZXZXSXAXAXAXSXSXSXSXSXSXSXZXAXAXAXAXAXSXCXSXCXSXSXCXCXVXSXAXAXAXSXAXAXVXlXSXAXAXAXAXSXZX^.-.ZXMX",
"SXZX-.W.VXmXCXZXCXlXCXSXAXAXSXCXZXZXSXSXAXAXAXDXvXvXSXSXSXSXAXAXmXAXSXCXCXCXCXCXCXCXCXCXCXSXZXAXSXSXSXCXlXCXSXAXAXAXDXvX^.-.SXmX",
"SXvX' (.CXAXvXvXsXgXqXBXZXBXBXjXgXjXjXiXCXSXAX/.' ' .XhXSXVXAXAXAXDXZXBXgXlXlXCXSXjXCXlXBXZXvXvXSXBX9Xw.1.,.cXZXVXSXSXvXU.,.CXGX",
"vXZX-.I.BXdXw.5.5.5.5.1.4.2.,.1.5.1.4.4.%XlXhXq.n 4 C.wXgXlXlXCXSXxXH.v.B.B.B.A.Z.Z.V.c.v.c.4XDXcXjX5XA $ 9 5XSXCXlXCXBXP.Z lXnX",
"CXlX$.C.hX9XO 0 > * p r j k a r r - 5   G.qXjXf.= 6 E.wXeXeXlXhXlXpX/ t p r y g f j % s s 8 (.pXCXCXpXC : l 6XZXCXsXSXZX^.@.lXGX",
"hXjX#.V.lX9XS J s p p T k k R U Y u K A (.pXgXh.n 5 v.8X*XC.%XBXwXqX( p a g g f f f t t p : ).jXNXBXiXS j F 4XCXBXaXCXaXA.>.CXnX",
"SXBX&.Z.CXZXuXuXr.2 l {.pXsX6X<.% j OXqXlXgXCXf.7 j L.&X$ 6 o -XCXBXr.- 0 k. X=X=X@X).u.: 4 ~.ZXAXSXaXV 2 l 0XBX-X3XvXvXP.*.ZXAX",
"ZXvX>.W.ZXcXZXxX{ $ B 2XlXpXxX4.n q OXlXVXVXCXn.3   {.h.f M V Z.ZXiXu.h F <XvXvXZXcXgXi.; w }.ZXDXSXcXV , l 6XJ.b b e.xX~.>.vXSX",
"VXCX# /.BXBXZXaX| i F &XCXBXaXp.f j &XjXjXCXcXd.6 w Y.{.4 v O %XCXjX<.% < &XBXZXAXjXwXt.% 4 ~.cXxXBX0XD 2 x &X+.6 7 Z tXI.#.jXCX",
"VXlX# T.NXpXXX^.R a : k.].(.^.K u f K.(.'.sXcXf.4 j L.9X#Xf.:XCXzXjX<.y 0 &XjXCXSXjXwXi.i 5 (.ZXZXBX5XL 2 2 8X9.3 b Z sXC.$.CXCX",
"SXCX$.T.sXtXo 6 a U a y : : y a a k i 0 N 9XgXf.w 4 Y.qXjXgXlXVXVXjX<.i ; ).5X6X0X9X,Xy.g f (.BXCXZXtX` w N 9X0Xw.n.;XsXF.;.SXAX",
"AXCXX.C.CXxX] 4 p r y - * * - y & i = 0 D 9XwX0.c c B.5XlXCXAXAXVXsX,.j i G G J V D L G g 6 (.lXBXZXxX` v 9 9XjXvXbXZXBXF.@ SXDX",
"CXCXX.C.CXBX/._.{.).[.oXOXOXOXOX&X#X|.@X;XBXVX7XA.^.4XcXBXSXSXZXCXsXL ; k & u u - 4 $ w -   T.gXlXpXtXC n w 9XlXZXZXBXBXS.;.ZXSX",
"AXBX%.G.ZXCXBX1X{.{.OXOXOXOXOXOX-X@X-X-X@X(.XX$X-X;X X}.BXSXZXSXCXBXf.H ) ( u.u.| u.3.<.,.4.:XCXlXgXiXC j F 2XhXxXxXjXjXT.:.ZXZX",
"CXBX6.B.BXSXiXO < , 1 q : : : : > i h - h q w q y j 7 V 4XCXZXZXSXSXsXjXgXgXsXsXvXcXBXsXsXcXSXSXCXCXiXV 3 z 2XlXSXSXSXjXT.;.BXZX",
"CXjX@.L.cXCXjXZ X , 0 5 5 i 5 i y y e & i : > & p p u v jXSXSXSXSXvXZXsX9XgXCXVXAXNXSXSXSXSXvXZXSXCXxXn.w.0.qXCXZXSXCXgXF.$.ZXSX",
"AXBX@.I.BXNXNX'.{.). X X X X X X X X X@XoX).R.{.U.E i 9 2XCXCXZXZXvX-XZ Z q.lXVXAXVXCXCXCXVXAXSXDXAXZXZXBXBXCXnXAXSXSXjXG.#.BXZX",
"AXCXX.C.SXZXaXJ.g.k.k.m.k.m.m.m.k.m.g.g.j.v.j.j.j.1 i H 2XlXCXSXZXZX;Xo 9 4.jXVXnXAXlXCXVXAXSXDXAXAXDXSXCXCXnXmXAXAXSXBXG.%.ZXSX",
"AXBX>.Z.SXZXiXB * s * % * * t t > ; , ; r r r r & i i 9 pXAXAXSXZXZX;Xc 7 p.xXNXAXAXSXCXCXSXSXZXAXAXAXSXVXlXnXMXAXAXSXBXG.*.BXSX",
"DXBX>.S.CXvXyXJ e r T T I T T T G H H G R R R R W F n 3.7XVXSXDXAXZXoXl m z.uXyXcXxXsXaXsXjXxXxXsXsXcXjXwXwXgXCXSXSXSXjXG.*.ZXZX",
"ZXcX>.J.ZXvXbX{ - W _.6X&X<X-X<X3X4X4X3X3X3X3X<X,X2X3X1XpXjXSXSXlXeX{.2 U U W E P P K I H / P P P K E E P H S f.ZXZXSXCXJ.;.SXSX",
"SXZXo.F.ZXvXbXC v = J L D ` L [ ` S ] S ` A A A L S B Z 0XCXBXlXlXeXE., e a u y q h i * 2 , 1 q d & u e 2 2 8 5.vXZXSXCXJ.*.ZXAX",
"AXSXO.S.SXSXyXV 0 ; $ 8 w 9 3 = y y q q q q w 0 ; 0 9 X 5XjXCXSXCXlX%X^ / <.L @.+.+.! ~ ! ! ,.+.,.~ ,.~ ~ ( ~ q.ZXSXCXCXJ.*.SXZX",
"DXSX>.S.SXSXBXN.1.h.s.s.s.5.p.j.y.y.t.y.y.y.t.a.t.a.p.q.5XBXSXSXSXZXlXqXwXpXiXBXZXBXjXjXgXpXpXjXpXgXgX8XwXhXqXsXSXSXAXCXH.%.ZXSX",
"ZXZX=.D.ZXAXSXpXhXqXpXcXBXBXBXsXjXlXBXBXZXvXZXZXZXBXZXCXSXSXAXAXZXSXAXSXCXCXCXZXSXSXZXBXjXCXSXSXZXSXSXSXVXCXZXvXZXSXSXBXL.*.CXVX",
"SXsX,.I.ZXAXAXSXlXqXCXSXNXSXAXAXVXSXAXAXSXSXSXSXZXAXnXmXSXSXAXAXZXSXmXAXzXCXSXDXSXZXSXCXZXCXSXAXSXZXZXAXmXnXZXZXZXSXSXBXG.%.CXVX",
"BXZX%.A.ZXAXAXSXCXCXSXSXSXAXAXSXSXSXSXSXSXSXSXSXAXAXSXSXSXZXSXSXvXSXAXAXCXCXSXSXZXSXSXSXSXCXSXSXSXSXSXAXAXAXCXCXSXSXSXBXJ.;.CXVX",
"ZXZX#.C.ZXZXSXAXCXSXSXSXAXSXSXSXSXSXSXSXSXSXSXSXAXAXSXSXSXSXSXZXZXSXAXVXCXlXAXAXZXZXBXSXCXSXSXSXSXAXSXSXAXkXjXCXSXSXCXBXJ.:.SXSX",
"SXBXo.G.ZXZXAXVXCXCXSXSXSXSXSXSXSXSXAXVXCXSXSXVXAXVXSXSXAXAXSXSXSXSXVXkXlXlXAXVXSXZXCXCXCXCXAXAXSXSXSXSXSXCXCXBXSXSXSXBXJ.;.CXSX",
"AXBX#.J.ZXvXSXAXCXCXSXSXSXSXCXZXSXAXAXAXSXCXSXVXAXSXSXCXAXAXAXSXvXSXCXlXhXlXCXCXSXSXCXCXjXCXSXAXVXCXSXSXBXiXiXsXSXSXCXZXI.*.BXCX",
"AXBX#.I.vXvXSXSXCXCXSXSXSXSXZXSXSXAXAXAXSXCXSXSXCXCXZXBXVXAXSXSXZXZXiXqXqXpXCXBXxXaXBXjXsXcXBXAXSXCXSXSXXXZ Z q.CXSXSXBX!.=.CXCX",
"SXZX#.G.ZXZXSXBXjXjXZXZXBXjXsXBXBXBXBXBXBXjXBXjXBXsXsXZXCXAXSXBXaXn.S ,.<.~ +.*.2.' =.=.2.@.e.5XBXBXSXCX}.. 9 9.ZXVXSXBXP.2.ZXSX",
"AXZX;.T.BXZXVX2X6.<.<.r.) ) ) ) ) r.<.<.r.<.,.1.3.3.4.].BXzXSXZXCX0.$ * p e : q 6 7 4 4 i $ S jXjXSXSXsX$Xc n 3.BXAXAXZXP.2.ZXCX",
"SXCX$.S.ZXSXCXXXX < 6 5 * 2 2 * * t * * : : 1 4 4 $ . ^.BXBXSXSXjXx.L k a Y W { { { P I r.J 4.sXCXCXVXBX|.$ d y.BXAXCXZX!.2.ZXCX",
"AXZX;.C.CXZXZX7XQ Z S ` S D A D S A A L [ L C L n n 3 ^.BXBXSXSXNXCX5XF g M >XpXsXjXqXpXgXgXCXCXSXSXVXBX).5 u u.lXnXAXCX!.-.BXCX",
"AXBX#.G.ZXZXSXsX0X5XaXyXyXiXuX5XtXaXyXuXuXuXyXuXa.q 4 U.sXBXSXSXVXSX6XN f J iXjXCXCXhXlXlXlXVXnXVXSXVXlX).5 p y.lXmXAXSX!.2.BXAX",
"ZXBX#.I.vXvXSXZXCXBXvXZXZXBXcXZXZXvXvXvXxXxXxXsXl.3 0 U.gXCXSXSXAXSXxXS 6 J aXlXSXVXCXlXCXCXAXAXSXAXAXBX).: y t.jXnXmXSX!.=.ZXVX",
"SXBX#.F.ZXZXCXiXZ.Z.H.H.A.D.A.B.A.D.H.H.A.A.D.L.r.% q U.gXSXAXSXSXxXtXN f M #XiX5X6X6X2X1X<X6XCXSXSXAXBX).: t t.lXAXAXCX!.-.CXAX",
"ZXZX$.S.SXCXjX%X. * u u p t * * t t e e : 2 , * t r i U.lXAXmXAXAXjXqXF k a j q F n G i k F c Z.SXSXAXCXR.1 t t.CXVXAXZX!.-.CXVX",
"ZXSX$.V.SXVXCX&X< - u u p t * * p p t e * , , , a a t Y.lXAXmXmXAXlX2X9 * k ; 4 - y f % h j . Z.ZXSXSXBX).1 2 t.BXVXAXSX!.*.CXVX",
"ZXBX%.F.ZXSXSXdXXX.X+X;X+XXXXX$XoXoX@X=X+X+X'._.r.s : Y.gXCXSXSXSXZXcXc.f.0.x.x.f.d.f.h.k.d.q.:XSXSXZXZX).< 2 t.jXCXSXZX!.-.CXCX",
"BXBX;.J.ZXBXSXAXCXSXZXSXSXSXZXDX3X5XvXZXSXCXBXsXk.4 0 R.jXCXDXSXAXZXZXZXBXjXCXlXZXsXiXsX4X<XiXsXZXZXCXBX`.9 < 5.BXCXSXZXW.-.CXVX",
"jXBX>.S.SXSXAXAXAXNXSXZXSXBXcX8.. N Z.jXBXVXCXaXd.X . G.jXSXSXSXmXSXZXZXAXmXmXVXCXsXY.r.m i j J s.6XlXpX$XZ O w.ZXCXZXZXW.:.ZXSX",
"CXCX# Q.sXZXSXnXnXAXSXBXCXZX7Xo j $ 4.lXVXVXjXBX(.q.x.<XBXSXAXSXAXAXZXSXAXmXAXCXiX4.n % > h i q 8 + T.jXiXtXcXCXCXBXCXBXW.:.SXAX",
"sXDX:.}.ZXCXAXzXVXCXCXsXjXBX6X] - - w.gXSXAXAXCXCXjXgXpXBXSXSXAXSXCXCXCXCXlXlXqXg.n   9 s.B.g.[ v $ J -XjXBXVXzXSXCXSXZX!.8.CXmX",
"BXDX] Q.BXjXsXBXBXsXsXiXpXiXiX).l.v.<XpXjXsXCXgX0XpXpXsXsXBXSXnXCXlXCXlXlXhXhX,X5 f J ).gXlXBXuXy.f = h.BXCXmXmXVXSXCXCX!.-.CXVX",
"fXlX>.P.sX.X` ,.[ L P | E G | W ) I _ E { J <.L P I P K / T.jXCXSXSXSXSXkXlXhX].n 7 k.xXdXAXZXvX3Xj M { cXSXMXmXSXSXSXZX!.} ZXZX",
"kXhX*.P.sX`.c b w 4 6 h d - : 2 , , % - 5 d 7 6 4 = h ; . B.lXzXSXSXSXSXCXCXhX$X6 f h.aXBXSXSXvX-X0 b } sXSXmXAXSXCXCXBX!.' BXBX",
"nXlX>.!.cX$X2.S [ [ S S S ~ ! Q O %.[ [ } } ` ` @.S ,.` o./.CXAXmXAXSXSXSXCXhX2Xv - v R.wXpXsXiXt.j   N.CXnXmXAXZXZXSXCXS.:.CXkX",
"nXlX>.!.sXNXaXxXaXaXsXsXsXpXqXlXjXsXxXuXbXuXxXZXcXaXxXvXsXZXAXmXmXAXDXSXSXBXlXjXg.w w 0 <.g.g.A w 4 N <XCXAXmXAXSXZXSXCXQ.:.CXkX",
"AXZX&.~.ZXSXZXZXAXZXSXSXZXZXZXSXCXCXBXZXZXZXSXSXSXSXSXSXZXSXSXSXAXAXSXSXSXSXSXCXgX0.< = h & & k % { `.jXSXnXMXAXSXSXBXBXW.O.BXCX",
"BXZX8.Q.SXAXSXAXAXAXAXAXSXSXSXSXSXCXCXSXSXSXAXAXAXAXVXSXSXSXSXSXSXAXSXSXAXAXSXSXCXgX`.u.n G I F k.OXjXjXBXSXAXAXSXSXSXBX~.=.CXfX",
"CXBX*.H.jXlXlXlXSXVXAXSXSXSXSXSXSXSXVXAXVXSXSXSXSXSXSXAXSXSXSXSXSXCXSXSXSXZXSXSXMXAXBXBX0X2X2XqXqXlXlXCXjXZXSXCXCXCXjXsXP.-.CXVX",
"hXgX%.I.gXlXjXlXlXlXCXBXBXBXZXCXCXCXCXCXCXCXCXBXBXBXZXZXCXCXBXBXjXjXBXBXZXZXvXvXSXAXBXBXBXlXCXlXlXgXjXBXZXcXvXZXZXCXCXcX^.2.BXAX",
"hXeX%.0.'.'.'.[.].[.[.|.oXoXoX@XoX[.].].].].[._._._.|.[.[.[.[._.).{.].XXXXXX+X+XXXXX+X]. X@X=X X.XXX;X;X=X;X;X+X+X|. X`.d.9.vXAX",
"fXlXx.>.$.$.X.Q X.+.+.` o.O.o.o.+.+.X.Q ^ Q ! +.+.+.+.+. . . .! ! ! ....# @ O.O. . .o.>.*.] ] &.O.&.@ @ ` ' &.@ O.&.o.*.-.b.ZXAX",
"MXSXSXvXxXZXZXBXCXCXBXBXCXCXZXBXZXZXZXCXVXCXZXBXvXZXZXZXSXZXCXCXBXBXBXBXCXCXCXlXgXjXjXgXsXZXSXZXSXZXAXZXvXxXCXlXlXlXlXgXBXSXZXvX",
"AXDXvXZXZXSXBXSXAXAXSXSXAXAXAXAXSXSXSXSXAXAXSXSXSXZXSXSXSXAXmXAXZXZXCXSXCXCXVXlXjXpXlXCXSXAXAXAXCXCXAXAXZXBXlXfXkXrXlXlXVXAXvXvX"
};
