/* XPM */
static char *result[] = {
/* columns rows colors chars-per-pixel */
"64 64 57 1 ",
"  c #25293F",
". c #262A42",
"X c #292D46",
"o c #2B2F4B",
"O c #2C304C",
"+ c #2E3151",
"@ c #323A55",
"# c #353B5A",
"$ c #37425F",
"% c #3A435E",
"& c #374162",
"* c #3B4464",
"= c #3E4866",
"- c #3E4668",
"; c #3F4968",
": c #404762",
"> c #424964",
", c #434D6B",
"< c #45516D",
"1 c #49526D",
"2 c #465071",
"3 c #4C5674",
"4 c #4E5876",
"5 c #4F5978",
"6 c #525B75",
"7 c #535E7B",
"8 c #5A6277",
"9 c #55607D",
"0 c #5C657C",
"q c #5E687F",
"w c #566280",
"e c #5B6784",
"r c #5C6885",
"t c #5F6B88",
"y c #606B85",
"u c #616D89",
"i c #66728D",
"p c #68748F",
"a c #6B788F",
"s c #677390",
"d c #6B7791",
"f c #6C7993",
"g c #707C97",
"h c #727E9A",
"j c #76829C",
"k c #79849D",
"l c #7A86A2",
"z c #7E8AA4",
"x c #828EA6",
"c c #828EA9",
"v c #8491A7",
"b c #8591AA",
"n c #8995AD",
"m c #8C99AE",
"M c #8B97B1",
"N c #8E9AB2",
"B c #919CB4",
/* pixels */
"o>yyyqqqq00q0000qyyyy6####@@@1qq0qq00qqqrryyqqq08q00q9q9qqqyqq=$",
"o0MNmmNmmmmmmmmmmMmMBk>*%&*%%iMMmmmMNmNBNBmmNmmmmmmmNNmmmmBzBB0 ",
"O7nmmmmmmmmmmmmmmnnmMk1>*&&=*iMMmnmnnmnnzNMzmnnmmNmzzmzzmzzzmz8O",
"O1daaaaaaaaadffaadaadfkh7&,67rddddddddaassjsaajlBz99rjjjjjjjjj<O",
"O1qeeeeeeeeerreeeeeersMBe-,weeueeeeereeeeeeeeetlBj=$4rrree0rqe=O",
"O>eyeeeeeeterruippayesMBe*,weerrererrreerrteeetjzj<=9urreerree=O",
"X>yeeeeyteeretzMmnnaqinMe*,ererrrrerrrterrrreettyr9rwrrrrrrrqy=X",
" :yeeeeeeeeeetzBMMMgeimMy&-wrurrerrrrreeeerrrreeqrrrrrrreerrry= ",
".=eeteetrererrgjkkhieujjw&-wrrrrerrrreerrrrreeteerrrerrrrrrerr= ",
".-tteeeeerrrreeerrrreyeq2*,errrrerrrtetrrrrrteeerrrrrrrrerrrrr=.",
".&eeeettreeereeeeeeeeqye3&>wrrrrrrrrteeerrrreeeerruurerrerrrrr=.",
" =eteefzlw;5rteerreeeizxe*,wrrrrrrrreettrrrreeterszze;<rreerry=.",
" =rreejNz5;;rrerreueepMMr&>errrrerrrrreerrrrrererfMMw*;wrrrrrr=.",
".=rrreszzw;;ererreeeeicce&,wrrrrerrerrterrrrrrrersMMw&<0reeerr=.",
".=rrrettsreeeeeerreeyruu3&,wrereerrreteerrrrrrrrtsMM9&;qrrrret> ",
".=trrrreetteererreeyeeye2*>werrerrreeeeerrreeerrrfMM9&<errrrtt>.",
"X=rrrrrrrrrerreeerreyw43>*>339re51weteeeeeuerrrrrtlje34etrrrtt>X",
"O<reerrrrrrrrreerreeew:&*%=&*4tw-*3eetyetueerrtrtrterurtrtttrt>o",
"X=eeeeeeeeeeeeeeeeeee5:&*****3e9>*1eeeeeeeeeeerrtteeurtuerreer>O",
"O$<<,,,,2,,,,,,2,2,,2>*****=*=,,---,11,,2,,,22,,;;;;;<;;<;2;,1#O",
"O@#%&&&&&&&&&&&&&&&&&&&*%&&&&&&&&*&&****&&***&&&-&;&&&&&&&&&&&#O",
"o*63444433343533633633333333533315331-&***&&>363;w;w3w47444344%O",
"O7nnnbbbnnnMnnnnbnbnnnbnnnnnnnnnnnnnx1%**&*&6cnnzNzNzzmznbbbbn8O",
"O0mNBBBBBNNNNNNNNNNNBBBMNBNNMMNNBBNBn3*****%9MNNBBBBBBBBBBBBBB0O",
"O6hhhlkkkkkklhllxmmxhlhhhhhkhlhjhkhkhpu7**<10jljkjjkjjkhhkhlhh6O",
"o>yyrrrrrrrrteeepnngreueuyrretetyeeeibMd=*7rerrrereeerrreyrryy,O",
"o>yyeeeeeerrteeepnngeeeeeerreeeeeeeeubBd*=9eeeeeeerreerryrreey>O",
".:eerrrrrrrrrreryddutrrrrrrreetreeueubBd**9eeerreteeeeilcderyy>X",
".:rrerrrrrrrrreeyeeererrrrrrrrrreeueubNd=*9eerrrerrreesMNgeeee>.",
".:rrrrrrrrrerrrreeeeerrrrrerrrrrueeeucMg**9eerreerrereuccdeeee>.",
" :rrrrreerrrrrrreeeerrrrrrrrrrereeeeybNg*-wrrtrrerrrrerruueyre:.",
" :rrrrrrrrrrerrryeeyrrerrrrrrrrryeeeubMd--5eeerrrrrrereeeeeere:.",
".>rrrrrreeeerrrrrrrerrrrretererreeeeucBg=*8eeerrrerrreeeterree> ",
".:rrrrrreeeerrrrerrrrrrrrrerretryeeeucMd*:7eeerreerereeererrre=.",
".*errrruyreeeerrrrrrrrrrrrerrrrreeteubBf=*7eeeertuerrreyteeeer% ",
".:rrrefcz7,,,,7rrrrrrrertretrrereyeeucBd=*7eeerjzjrreereeeetre>.",
".:reeegMn3&%%*6rrrrrrerreerreeeeeeeeubBd%=9eeerzBcyeeeeeeeeyrr>.",
".:eteqfcz4,,,,9rrrrrrerrw99wwwteeteeuhlu*=479erlclyqeeeeeqeerr>.",
"o,rteyyiye000eeeeereeeee3**;;3rreeeee2,-$*==3ettuureeeeeeqeerr>O",
"o,rryyeeeeeeeeeetteerrrt<=&=*4reeteee,****$%<rtrrreeeyyereerry>O",
"o&6356534446344455663653,****,3355522>-*****;44545534544445444&+",
"o@&&&&&&&&&&&&***&*%=&=&*&*&****&**&&****-**&**&*&***&**&=&***$+",
"+#>*>:--:===;=&&&&***:=--=---;;;->--->,>>>-->--,;;--;;===*==**$o",
"o4lklkkkkkkkkj3****%*2glkkjlkkkklllhxhhlhllhllhhjjjjjlkkkkkkll3o",
"X0BBBBBBBBBNBm6&&*&&%3nBBNBNBBBBBBBBBBBBBBNBBBBBBBBBBBBBBBBBNNqO",
"X8vvxxxxxvvvxxy33*-,,6zcbbvvcvbcbbcbbMNbccxccccczzzMzzbvvvvvzv6O",
"O<uyyyyyyyyyyulng-*6eeyutttttuttyyuusbBg,,0yuuuuttituuuyyyyyyy,O",
"O>eqeeeeeeeeeycBh>&4errrrrrrrrteywywucBs&&7yeeeereeerrqrwrrqeq>O",
"X>qeeeeeeeeweuzBh>*5eereereerrreeeerehli33wreerrrerrrrrrerrrqq=X",
" =eeeeeeeeeeerzBh,*weeeeteetrertrrrreeererrerrrrrrreererrreerr= ",
" %rrturreeeertzNh,*5eeettrrrrrrrrrrreeereerrrrrrrtttuuueqrrerq= ",
".=eulzjreeeerrije,*7teeeeerrrrrrrrrreeeeeereetrerszzzzj3;9rrry= ",
"X>ruvBlrrerrerrr7>&5ueeeereteererterrrrrrrrrrrrerfBBBBz;$4rrrr= ",
" >ruzvjrrerrrrer7:*5ueeuereeteetrererrrerrrrerreeszzzzj;=7rrrr> ",
" >tqtuurrerrrerr7*-5eeeeerrteteeeerrrrrerretrreerettstterrrrry> ",
".>rrrrqrrerrrrrr7*&wteeeerreeeerrtrrrretereerrrererrrreryrrrry=X",
" >rreeeererrrrrr6-*6ueeyerrrrrrrrrrrrrrreueeueuererreeeerrrrrr= ",
".>rreeerrrrrreee7-*6ueeyererrrrrrrrrrrrreeeeeeeerrrryeeyrrrrrr= ",
".=rqeeeeerrrrree7**7ewyeeeeererrrrrrrrrreteeeewwrrreeeeerrrrry> ",
"X<rrre72;wrrre3;>**-,3eeeeeeeerrrrrrrrrreeeew,2wrrrrreeerrrrry>X",
"X,rewe5*;7eerw;;****&,eeeerrrrrreeeererreeew6=&7rrrryeeyrrrrrr>O",
"O=90ww3*-45ww7;&*&***-ww9w977797w7wwwwwwwwww5*-3777777w7977799%O",
"o#==*>=&***;--;;--&-*--->---=*==*-***-&-----**--->----->,->-=%$X",
"+#&&***-&***&----&--**&&-*******=&-&---&-&&&--*-&*******:*&*%%$O"
};
